<svg width="111" height="43" viewBox="0 0 111 43" fill="none" xmlns="http://www.w3.org/2000/svg">
<mask id="mask0_508_6945" style="mask-type:alpha" maskUnits="userSpaceOnUse" x="0" y="0" width="111" height="43">
<g clip-path="url(#clip0_508_6945)">
<path d="M21.6289 22.2346C21.9546 22.6481 22.0941 23.1075 22.0941 23.6587C22.0941 24.4857 21.7685 25.1288 21.0707 25.5882C20.373 26.0476 19.3496 26.2773 18.047 26.2773H12.6045V16.7678H17.7214C19.0239 16.7678 19.9543 16.9975 20.6521 17.4569C21.3498 17.9163 21.6289 18.5135 21.6289 19.2486C21.6289 19.7079 21.5359 20.0755 21.3033 20.443C21.0707 20.8105 20.7451 21.0861 20.3264 21.3158C20.8847 21.5455 21.3033 21.8212 21.6289 22.2346ZM15.7677 19.0188V20.443H17.3027C18.0005 20.443 18.3727 20.2133 18.3727 19.7539C18.3727 19.2945 18.0005 19.0648 17.3027 19.0648H15.7677V19.0188ZM18.7914 23.2912C18.7914 22.7859 18.4192 22.5562 17.7214 22.5562H15.7677V24.0722H17.7214C18.4657 24.0722 18.7914 23.7966 18.7914 23.2912Z" fill="black"/>
<path d="M33.4438 23.8884H32.5599V26.2773H29.3037V16.7678H33.9555C34.8393 16.7678 35.6301 16.9057 36.2814 17.1813C36.9326 17.4569 37.4443 17.8704 37.8164 18.4216C38.1886 18.9729 38.3747 19.6161 38.3747 20.3051C38.3747 20.9942 38.2351 21.5915 37.9095 22.0968C37.5839 22.6021 37.1652 23.0156 36.5605 23.2912L38.5607 26.2313H35.0719L33.4438 23.8884ZM34.7463 19.5242C34.5137 19.3404 34.1881 19.2486 33.7694 19.2486H32.6065V21.4996H33.7694C34.1881 21.4996 34.5602 21.4077 34.7463 21.224C34.9789 21.0402 35.0719 20.7646 35.0719 20.397C35.0719 20.0295 34.9789 19.7539 34.7463 19.5242Z" fill="black"/>
<path d="M45.6787 16.7678H48.9349V26.2773H45.6787V16.7678Z" fill="black"/>
<path d="M56.6104 16.7678H61.3551C62.4252 16.7678 63.3555 16.9516 64.1926 17.365C65.0303 17.7325 65.635 18.2838 66.0999 19.0188C66.5653 19.7539 66.7978 20.5808 66.7978 21.5455C66.7978 22.5103 66.5653 23.3372 66.0999 24.0722C65.635 24.8072 65.0303 25.3585 64.1926 25.726C63.3555 26.0936 62.4252 26.3232 61.3551 26.3232H56.6104V16.7678ZM61.2156 23.7966C61.9132 23.7966 62.4718 23.6128 62.8901 23.1993C63.3089 22.7859 63.4947 22.2346 63.4947 21.5455C63.4947 20.8105 63.3089 20.2592 62.8901 19.8917C62.4718 19.4783 61.9132 19.2945 61.2156 19.2945H59.8666V23.7966H61.2156Z" fill="black"/>
<path d="M80.4738 21.2703H83.3113V25.3129C82.7532 25.6804 82.102 26.002 81.3109 26.2317C80.567 26.4614 79.8225 26.5533 79.078 26.5533C78.0551 26.5533 77.1241 26.3235 76.3336 25.9101C75.4965 25.4967 74.8913 24.8995 74.4264 24.1644C73.9609 23.4294 73.7285 22.5566 73.7285 21.5918C73.7285 20.6271 73.9609 19.7542 74.4264 19.0192C74.8913 18.2842 75.5425 17.687 76.3802 17.2735C77.2173 16.86 78.1477 16.6304 79.1712 16.6304C80.1015 16.6304 80.9386 16.7682 81.7297 17.0897C82.4742 17.4113 83.0789 17.8707 83.5903 18.4679L81.4973 20.2596C80.8926 19.5705 80.1947 19.203 79.357 19.203C78.6597 19.203 78.0551 19.4326 77.6362 19.8461C77.2174 20.2596 76.9849 20.8568 76.9849 21.5918C76.9849 22.3268 77.1707 22.8781 77.5896 23.3375C78.0085 23.7969 78.5665 23.9806 79.2644 23.9806C79.6827 23.9806 80.0549 23.8888 80.4272 23.7509V21.2703H80.4738Z" fill="black"/>
<path d="M98.8017 23.8884V26.3232H90.7539V16.7678H98.5693V19.2027H93.9171V20.3051H98.0112V22.6021H93.9171V23.8425H98.8017V23.8884Z" fill="black"/>
<path d="M15.8136 37.0728C15.9532 37.2565 15.9997 37.4403 15.9997 37.7159C15.9997 38.0835 15.8602 38.3591 15.581 38.5429C15.3019 38.7266 14.8833 38.8185 14.3716 38.8185H12.2783V34.8218H14.2785C14.7902 34.8218 15.1624 34.9137 15.395 35.0974C15.6741 35.2811 15.8136 35.5568 15.8136 35.8784C15.8136 36.0621 15.7672 36.2459 15.6741 36.3837C15.581 36.5215 15.4415 36.6593 15.2555 36.7512C15.488 36.7972 15.6741 36.935 15.8136 37.0728ZM13.2086 35.5109V36.4756H14.139C14.3716 36.4756 14.5577 36.4297 14.6507 36.3377C14.7902 36.2459 14.8368 36.154 14.8368 35.9702C14.8368 35.8325 14.7902 35.6946 14.6507 35.6027C14.5111 35.5109 14.3716 35.4649 14.139 35.4649H13.2086V35.5109ZM14.8833 37.9916C15.0228 37.8997 15.0694 37.8078 15.0694 37.624C15.0694 37.3025 14.8368 37.1187 14.3251 37.1187H13.2086V38.1294H14.3251C14.5577 38.0835 14.7437 38.0835 14.8833 37.9916Z" fill="black"/>
<path d="M18.3255 38.4054C17.9999 38.0838 17.8604 37.6244 17.8604 37.0272V34.7762H18.7907V36.9812C18.7907 37.7163 19.0698 38.0379 19.6745 38.0379C19.9537 38.0379 20.1862 37.946 20.3258 37.7622C20.4654 37.5785 20.5584 37.3028 20.5584 36.9353V34.7302H21.4887V36.9812C21.4887 37.5785 21.3492 38.0379 21.0235 38.3594C20.6979 38.681 20.2327 38.8189 19.6745 38.8189C19.1163 38.8189 18.6511 38.727 18.3255 38.4054Z" fill="black"/>
<path d="M24.0011 38.7268C23.722 38.6349 23.4429 38.543 23.2568 38.4052L23.5824 37.7161C23.7685 37.8539 23.9546 37.9458 24.1871 38.0377C24.4198 38.1295 24.6524 38.1295 24.8849 38.1295C25.1641 38.1295 25.3501 38.0836 25.4897 37.9918C25.6292 37.8998 25.6758 37.8079 25.6758 37.6702C25.6758 37.5783 25.6292 37.4864 25.5827 37.4405C25.4897 37.3945 25.3966 37.3486 25.3036 37.3027C25.2106 37.2567 25.0245 37.2107 24.8384 37.1648C24.5128 37.073 24.2802 37.027 24.0941 36.9351C23.9081 36.8432 23.722 36.7514 23.5824 36.5676C23.4429 36.3839 23.3499 36.2001 23.3499 35.9245C23.3499 35.6948 23.3964 35.4651 23.5359 35.2813C23.6755 35.0976 23.8616 34.9597 24.0941 34.8219C24.3733 34.7301 24.6524 34.6382 25.0245 34.6382C25.3036 34.6382 25.5362 34.6841 25.7688 34.7301C26.0014 34.776 26.234 34.8678 26.42 35.0057L26.1409 35.6948C25.7688 35.4651 25.3966 35.3732 25.0245 35.3732C24.7454 35.3732 24.5593 35.4191 24.4198 35.511C24.2802 35.6029 24.2337 35.6948 24.2337 35.8326C24.2337 35.9704 24.3267 36.0623 24.4663 36.1541C24.6058 36.2001 24.8384 36.292 25.1175 36.3379C25.4432 36.4298 25.6758 36.4757 25.8618 36.5676C26.0479 36.6595 26.234 36.7514 26.3735 36.8892C26.5131 37.027 26.6061 37.2567 26.6061 37.5323C26.6061 37.762 26.5596 37.9918 26.42 38.1755C26.2804 38.3593 26.0944 38.497 25.8153 38.6349C25.5362 38.7268 25.2571 38.8186 24.8849 38.8186C24.6058 38.8646 24.2802 38.8186 24.0011 38.7268Z" fill="black"/>
<path d="M28.4668 34.7761H29.3972V38.7728H28.4668V34.7761Z" fill="black"/>
<path d="M35.2121 34.7761V38.7728H34.4678L32.4675 36.3381V38.7728H31.5371V34.7761H32.328L34.3282 37.2109V34.7761H35.2121Z" fill="black"/>
<path d="M40.5148 38.0378V38.7728H37.3516V34.7761H40.4217V35.5112H38.2819V36.384H40.1426V37.119H38.2819V38.0378H40.5148Z" fill="black"/>
<path d="M42.7941 38.7268C42.515 38.6349 42.2359 38.543 42.0498 38.4052L42.3754 37.7161C42.5615 37.8539 42.7476 37.9458 42.9802 38.0377C43.2128 38.1295 43.4453 38.1295 43.6779 38.1295C43.957 38.1295 44.1431 38.0836 44.2827 37.9918C44.4222 37.8998 44.4687 37.8079 44.4687 37.6702C44.4687 37.5783 44.4222 37.4864 44.3757 37.4405C44.2827 37.3945 44.1897 37.3486 44.0966 37.3027C44.0036 37.2567 43.8175 37.2107 43.6314 37.1648C43.3058 37.073 43.0732 37.027 42.8872 36.9351C42.7011 36.8432 42.515 36.7514 42.3754 36.5676C42.2359 36.3839 42.1428 36.2001 42.1428 35.9245C42.1428 35.6948 42.1894 35.4651 42.3289 35.2813C42.4685 35.0976 42.6545 34.9597 42.8872 34.8219C43.1662 34.7301 43.4453 34.6382 43.8175 34.6382C44.0966 34.6382 44.3292 34.6841 44.5618 34.7301C44.7944 34.776 45.0269 34.8678 45.2131 35.0057L44.9339 35.6948C44.5618 35.4651 44.1897 35.3732 43.8175 35.3732C43.5384 35.3732 43.3523 35.4191 43.2128 35.511C43.0732 35.6029 43.0267 35.6948 43.0267 35.8326C43.0267 35.9704 43.1197 36.0623 43.2593 36.1541C43.3989 36.2001 43.6314 36.292 43.9106 36.3379C44.2361 36.4298 44.4687 36.4757 44.6548 36.5676C44.8409 36.6595 45.0269 36.7514 45.1665 36.8892C45.3061 37.027 45.3991 37.2567 45.3991 37.5323C45.3991 37.762 45.3526 37.9918 45.2131 38.1755C45.0735 38.3593 44.8874 38.497 44.6083 38.6349C44.3292 38.7268 44.0501 38.8186 43.6779 38.8186C43.3989 38.8646 43.1197 38.8186 42.7941 38.7268Z" fill="black"/>
<path d="M47.6788 38.7268C47.3997 38.6349 47.1206 38.543 46.9346 38.4052L47.2602 37.7161C47.4463 37.8539 47.6323 37.9458 47.8649 38.0377C48.0975 38.1295 48.3301 38.1295 48.5627 38.1295C48.8418 38.1295 49.0279 38.0836 49.1674 37.9918C49.307 37.8998 49.3535 37.8079 49.3535 37.6702C49.3535 37.5783 49.307 37.4864 49.2605 37.4405C49.1674 37.3945 49.0744 37.3486 48.9813 37.3027C48.8883 37.2567 48.7022 37.2107 48.5162 37.1648C48.1905 37.073 47.958 37.027 47.7719 36.9351C47.5858 36.8432 47.3997 36.7514 47.2602 36.5676C47.1206 36.3839 47.0276 36.2001 47.0276 35.9245C47.0276 35.6948 47.0741 35.4651 47.2137 35.2813C47.3532 35.0976 47.5393 34.9597 47.7719 34.8219C48.051 34.7301 48.3301 34.6382 48.7022 34.6382C48.9813 34.6382 49.2139 34.6841 49.4465 34.7301C49.6791 34.776 49.9117 34.8678 50.0978 35.0057L49.8187 35.6948C49.4465 35.4651 49.0744 35.3732 48.7022 35.3732C48.4231 35.3732 48.2371 35.4191 48.0975 35.511C47.958 35.6029 47.9114 35.6948 47.9114 35.8326C47.9114 35.9704 48.0045 36.0623 48.144 36.1541C48.2836 36.2001 48.5162 36.292 48.7953 36.3379C49.1209 36.4298 49.3535 36.4757 49.5396 36.5676C49.7256 36.6595 49.9117 36.7514 50.0513 36.8892C50.1908 37.027 50.2838 37.2567 50.2838 37.5323C50.2838 37.762 50.2373 37.9918 50.0978 38.1755C49.9582 38.3593 49.7721 38.497 49.493 38.6349C49.2139 38.7268 48.9348 38.8186 48.5627 38.8186C48.2836 38.8646 47.958 38.8186 47.6788 38.7268Z" fill="black"/>
<path d="M55.3078 38.7268C55.0287 38.6349 54.7495 38.543 54.5635 38.4052L54.8891 37.7161C55.0752 37.8539 55.2612 37.9458 55.4939 38.0377C55.7265 38.1295 55.959 38.1295 56.1916 38.1295C56.4707 38.1295 56.6568 38.0836 56.7964 37.9918C56.9359 37.8998 56.9824 37.8079 56.9824 37.6702C56.9824 37.5783 56.9359 37.4864 56.8894 37.4405C56.7964 37.3945 56.7033 37.3486 56.6103 37.3027C56.5173 37.2567 56.3312 37.2107 56.1451 37.1648C55.8195 37.073 55.5869 37.027 55.4008 36.9351C55.2148 36.8432 55.0287 36.7514 54.8891 36.5676C54.7495 36.3839 54.6565 36.2001 54.6565 35.9245C54.6565 35.6948 54.703 35.4651 54.8426 35.2813C54.9821 35.0976 55.1682 34.9597 55.4008 34.8219C55.6799 34.7301 55.959 34.6382 56.3312 34.6382C56.6103 34.6382 56.8429 34.6841 57.0754 34.7301C57.3081 34.776 57.5407 34.8678 57.7267 35.0057L57.4476 35.6948C57.0754 35.4651 56.7033 35.3732 56.3312 35.3732C56.052 35.3732 55.866 35.4191 55.7265 35.511C55.5869 35.6029 55.5404 35.6948 55.5404 35.8326C55.5404 35.9704 55.6334 36.0623 55.7729 36.1541C55.9125 36.2001 56.1451 36.292 56.4242 36.3379C56.7498 36.4298 56.9824 36.4757 57.1685 36.5676C57.3545 36.6595 57.5406 36.7514 57.6802 36.8892C57.8198 37.027 57.9128 37.2567 57.9128 37.5323C57.9128 37.762 57.8662 37.9918 57.7267 38.1755C57.5872 38.3593 57.4011 38.497 57.122 38.6349C56.8428 38.7268 56.5637 38.8186 56.1916 38.8186C55.9125 38.8646 55.6334 38.8186 55.3078 38.7268Z" fill="black"/>
<path d="M60.6109 38.5891C60.2853 38.4054 60.0062 38.1757 59.8201 37.8541C59.634 37.5326 59.541 37.165 59.541 36.7975C59.541 36.384 59.634 36.0625 59.8201 35.7409C60.0062 35.4193 60.2853 35.1896 60.6109 35.0058C60.9366 34.8221 61.3087 34.7302 61.7273 34.7302C62.1462 34.7302 62.5178 34.8221 62.8435 35.0058C63.1691 35.1896 63.4488 35.4193 63.6346 35.7409C63.8204 36.0625 63.9136 36.43 63.9136 36.7975C63.9136 37.211 63.8204 37.5326 63.6346 37.8541C63.4488 38.1757 63.1691 38.4054 62.8435 38.5891C62.5178 38.7729 62.1462 38.8648 61.7273 38.8648C61.3087 38.8648 60.9366 38.7729 60.6109 38.5891ZM62.3786 37.9001C62.5645 37.8082 62.7043 37.6244 62.8435 37.4407C62.9367 37.2569 63.0299 37.0272 63.0299 36.7975C63.0299 36.5678 62.9833 36.3381 62.8435 36.1544C62.7509 35.9706 62.5645 35.7868 62.3786 35.6949C62.1928 35.6031 61.9598 35.5112 61.7273 35.5112C61.4949 35.5112 61.2621 35.5572 61.0761 35.6949C60.89 35.7868 60.7505 35.9706 60.6109 36.1544C60.5179 36.3381 60.4248 36.5678 60.4248 36.7975C60.4248 37.0272 60.4713 37.2569 60.6109 37.4407C60.7039 37.6244 60.89 37.8082 61.0761 37.9001C61.2621 37.9919 61.4949 38.0838 61.7273 38.0838C61.9598 38.0838 62.1928 38.0379 62.3786 37.9001Z" fill="black"/>
<path d="M65.8203 34.7761H66.7506V38.0378H68.7977V38.7728H65.8203V34.7761Z" fill="black"/>
<path d="M70.8447 38.4054C70.5191 38.0838 70.3799 37.6244 70.3799 37.0272V34.7762H71.3102V36.9812C71.3102 37.7163 71.5892 38.0379 72.1939 38.0379C72.4729 38.0379 72.7054 37.946 72.8452 37.7622C72.9844 37.5785 73.0776 37.3028 73.0776 36.9353V34.7302H74.0079V36.9812C74.0079 37.5785 73.8687 38.0379 73.5431 38.3594C73.2174 38.681 72.752 38.8189 72.1939 38.8189C71.6358 38.8189 71.1704 38.727 70.8447 38.4054Z" fill="black"/>
<path d="M76.8914 35.5568H75.5889V34.8218H79.1243V35.5568H77.8217V38.8185H76.8914V35.5568Z" fill="black"/>
<path d="M80.7998 34.7761H81.7301V38.7728H80.7998V34.7761Z" fill="black"/>
<path d="M84.7069 38.5891C84.3812 38.4054 84.1016 38.1757 83.9158 37.8541C83.7299 37.5326 83.6367 37.165 83.6367 36.7975C83.6367 36.384 83.7299 36.0625 83.9158 35.7409C84.1016 35.4193 84.3812 35.1896 84.7069 35.0058C85.0325 34.8221 85.4041 34.7302 85.823 34.7302C86.2418 34.7302 86.6141 34.8221 86.9397 35.0058C87.2648 35.1896 87.5444 35.4193 87.7302 35.7409C87.916 36.0625 88.0093 36.43 88.0093 36.7975C88.0093 37.211 87.916 37.5326 87.7302 37.8541C87.5444 38.1757 87.2648 38.4054 86.9397 38.5891C86.6141 38.7729 86.2418 38.8648 85.823 38.8648C85.4041 38.8648 85.0325 38.7729 84.7069 38.5891ZM86.4743 37.9001C86.6601 37.8082 86.7999 37.6244 86.9397 37.4407C87.0323 37.2569 87.1256 37.0272 87.1256 36.7975C87.1256 36.5678 87.0789 36.3381 86.9397 36.1544C86.8465 35.9706 86.6601 35.7868 86.4743 35.6949C86.2885 35.6031 86.0554 35.5112 85.823 35.5112C85.5906 35.5112 85.3575 35.5572 85.1717 35.6949C84.9859 35.7868 84.8461 35.9706 84.7069 36.1544C84.6136 36.3381 84.5204 36.5678 84.5204 36.7975C84.5204 37.0272 84.567 37.2569 84.7069 37.4407C84.7995 37.6244 84.9859 37.8082 85.1717 37.9001C85.3575 37.9919 85.5906 38.0838 85.823 38.0838C86.0554 38.0838 86.2885 38.0379 86.4743 37.9001Z" fill="black"/>
<path d="M93.6382 34.7761V38.7728H92.8478L90.8473 36.3381V38.7728H89.917V34.7761H90.7081L92.7079 37.2109V34.7761H93.6382Z" fill="black"/>
<path d="M96.1501 38.7268C95.8711 38.6349 95.5921 38.543 95.4062 38.4052L95.7319 37.7161C95.9177 37.8539 96.1041 37.9458 96.3366 38.0377C96.569 38.1295 96.8014 38.1295 97.0345 38.1295C97.3135 38.1295 97.4993 38.0836 97.6391 37.9918C97.7783 37.8998 97.8249 37.8079 97.8249 37.6702C97.8249 37.5783 97.7783 37.4864 97.7317 37.4405C97.6391 37.3945 97.5459 37.3486 97.4527 37.3027C97.3601 37.2567 97.1737 37.2107 96.9878 37.1648C96.6622 37.073 96.4298 37.027 96.2433 36.9351C96.0575 36.8432 95.8711 36.7514 95.7319 36.5676C95.5921 36.3839 95.4995 36.2001 95.4995 35.9245C95.4995 35.6948 95.5455 35.4651 95.6853 35.2813C95.8245 35.0976 96.0109 34.9597 96.2433 34.8219C96.5224 34.7301 96.8014 34.6382 97.1737 34.6382C97.4527 34.6382 97.6857 34.6841 97.9182 34.7301C98.1506 34.776 98.383 34.8678 98.5694 35.0057L98.2904 35.6948C97.9182 35.4651 97.5459 35.3732 97.1737 35.3732C96.8946 35.3732 96.7088 35.4191 96.569 35.511C96.4298 35.6029 96.3832 35.6948 96.3832 35.8326C96.3832 35.9704 96.4758 36.0623 96.6156 36.1541C96.7554 36.246 96.9878 36.292 97.2669 36.3379C97.5925 36.4298 97.8249 36.4757 98.0114 36.5676C98.1972 36.6595 98.383 36.7514 98.5228 36.8892C98.6627 37.027 98.7553 37.2567 98.7553 37.5323C98.7553 37.762 98.7086 37.9918 98.5694 38.1755C98.4296 38.3593 98.2438 38.497 97.9648 38.6349C97.6857 38.7268 97.4067 38.8186 97.0345 38.8186C96.7554 38.8646 96.4758 38.8186 96.1501 38.7268Z" fill="black"/>
<path d="M103.127 12.7252H7.62643L6.83563 12.2658L0.183594 0.918789L1.81171 0L8.18468 10.8876H102.569L108.942 0L110.57 0.918789L103.918 12.2658L103.127 12.7252Z" fill="#E2C576"/>
<path d="M108.942 42.8155L102.569 31.9279H8.18468L1.81171 42.8155L0.183594 41.8967L6.83563 30.5497L7.62643 30.0903H103.127L103.918 30.5497L110.57 41.8967L108.942 42.8155Z" fill="#E2C576"/>
</g>
</mask>
<g mask="url(#mask0_508_6945)">
<rect width="110.387" height="43" fill="white"/>
</g>
<defs>
<clipPath id="clip0_508_6945">
<rect width="111" height="43" fill="white"/>
</clipPath>
</defs>
</svg>
