<svg width="46" height="45" viewBox="0 0 46 45" fill="none" xmlns="http://www.w3.org/2000/svg">
<path d="M1.37793 0.107054C13.4447 -0.016028 21.0852 -0.0332337 24.2997 0.0567619C28.11 0.166609 31.8115 1.45963 35.4029 3.93716C41.6698 8.25562 44.9798 14.2814 45.3328 22.0143L1.37793 0.105733V0.107054Z" fill="white"/>
<path d="M0.334961 0.742188L34.6957 17.8215C34.8005 17.8744 34.831 17.9552 34.7886 18.0637L34.7103 18.2344C34.6957 18.2728 34.6691 18.2847 34.632 18.2701L0.334961 5.99236V0.742188Z" fill="white"/>
<path d="M0.334961 7.09106L34.5099 19.2471C34.6028 19.2802 34.6559 19.3794 34.632 19.4747L34.5749 19.66C34.5603 19.7169 34.5218 19.7381 34.4608 19.7248L0.336289 12.3704V7.09106H0.334961Z" fill="white"/>
<path d="M0.334336 13.4263C11.7242 15.8945 23.1247 18.3323 34.5371 20.7384C34.6128 20.7569 34.6725 20.798 34.7163 20.8602C34.7349 20.8893 34.7349 20.9171 34.7163 20.9462C34.6685 21.0084 34.6088 21.0388 34.5371 21.0388C33.7169 21.0534 32.9007 21.0322 32.0898 20.974C21.5068 20.2223 10.9213 19.4877 0.333008 18.7691V13.4263H0.334336Z" fill="white"/>
<path d="M0.334961 19.7962L34.5961 22.25C34.7395 22.2592 34.8111 22.336 34.8111 22.4776V22.6563C34.8111 22.6854 34.7965 22.6986 34.7687 22.6986L0.336289 25.1311V19.7949L0.334961 19.7962Z" fill="white"/>
<path d="M45.3253 22.929C44.7387 35.5627 35.1591 44.8879 22.5111 44.9726C15.4571 45.0202 8.35272 45.0056 1.19922 44.9302L45.3253 22.929Z" fill="white"/>
<path d="M0.334961 31.4612V26.1607L34.5032 23.7203C34.6227 23.711 34.6917 23.7652 34.7103 23.8844L34.7315 24.063C34.7368 24.0868 34.7262 24.1041 34.7023 24.1133L0.334961 31.4612Z" fill="white"/>
<path d="M0.334961 37.8391V32.5664L34.3811 25.1471C34.4621 25.1286 34.5152 25.159 34.5391 25.2397L34.5895 25.425C34.6466 25.6196 34.5802 25.7506 34.3891 25.8168L0.336289 37.8378L0.334961 37.8391Z" fill="white"/>
<path d="M0.334961 44.0091V38.9442C11.9 34.8732 23.4478 30.7573 34.9744 26.595C35.0646 26.5619 35.1297 26.5897 35.1681 26.681H35.1748C35.2133 26.771 35.1867 26.8385 35.0965 26.8808C23.6124 32.5691 12.1349 38.2838 0.664103 44.0237C0.568546 44.0713 0.458389 44.066 0.334961 44.0091Z" fill="white"/>
</svg>
