<svg width="65" height="65" viewBox="0 0 65 65" fill="none" xmlns="http://www.w3.org/2000/svg">
<mask id="mask0_673_2856" style="mask-type:alpha" maskUnits="userSpaceOnUse" x="0" y="0" width="65" height="65">
<g clip-path="url(#clip0_673_2856)">
<path d="M15.5932 43.9002C15.5938 46.3871 15.5935 48.98 15.5923 51.6789C15.5923 52.0437 15.9772 52.275 16.2945 52.0922C18.8368 50.6281 21.3142 49.1991 23.7267 47.8051C23.912 47.6978 24.0049 47.5433 24.0055 47.3416C24.0074 44.6725 24.0077 41.9055 24.0065 39.0408C24.0065 39.0227 24.0112 39.0049 24.0202 38.9892C24.0292 38.9735 24.0421 38.9604 24.0577 38.9512C26.4464 37.5724 28.8299 36.1958 31.2083 34.8213C31.393 34.7144 31.5283 34.5233 31.5283 34.3066C31.5277 31.5339 31.5277 28.7648 31.5283 25.9994C31.5283 25.9905 31.5306 25.9818 31.5351 25.9741C31.5396 25.9664 31.5461 25.96 31.5539 25.9555C33.9292 24.5792 36.2798 23.2209 38.6058 21.8805C38.9751 21.6675 39.0903 21.1537 38.6753 20.9141C31.3683 16.6907 23.9095 12.382 16.299 7.98796C16.0083 7.81973 15.5941 8.00442 15.5941 8.35733C15.5917 11.0581 15.5932 13.6702 15.5987 16.1937C15.5987 16.2321 15.5819 16.2415 15.5484 16.222C13.2938 14.9189 11.0394 13.6148 8.78543 12.3098C8.46451 12.1242 8.08966 12.3747 8.08966 12.7304C8.08844 18.1058 8.08844 23.8505 8.08966 29.9646C8.08966 30.1883 8.18474 30.3554 8.37491 30.4657C10.5643 31.731 12.801 33.0263 15.0849 34.3514C15.0896 34.3541 15.0936 34.358 15.0963 34.3628C15.099 34.3675 15.1005 34.3729 15.1005 34.3784C15.1005 34.3838 15.099 34.3892 15.0963 34.394C15.0936 34.3987 15.0896 34.4026 15.0849 34.4053C12.8302 35.7073 10.582 37.0065 8.34017 38.3029C8.17316 38.3999 8.08966 38.5583 8.08966 38.7784C8.08905 41.5572 8.08813 44.4101 8.08691 47.337C8.08691 47.7594 8.48554 47.9477 8.8348 47.7457C11.1979 46.3755 13.4303 45.0818 15.5319 43.8645C15.5728 43.8408 15.5932 43.8527 15.5932 43.9002Z" stroke="#808080" stroke-width="0.182857"/>
<path d="M40.3225 38.4861C40.3226 38.4225 40.3102 38.3595 40.2859 38.3006C40.2617 38.2418 40.2261 38.1883 40.1812 38.1433C40.1362 38.0982 40.0829 38.0624 40.0241 38.0379C39.9654 38.0135 39.9024 38.0008 39.8388 38.0007L39.4237 38C39.36 37.9999 39.297 38.0123 39.2382 38.0366C39.1793 38.0608 39.1259 38.0964 39.0808 38.1413C39.0357 38.1863 38.9999 38.2396 38.9755 38.2984C38.951 38.3571 38.9384 38.4201 38.9383 38.4837L38.9375 38.9208C38.9374 38.9844 38.9498 39.0474 38.9741 39.1063C38.9983 39.1651 39.0339 39.2186 39.0788 39.2637C39.1238 39.3087 39.1771 39.3445 39.2359 39.369C39.2946 39.3934 39.3576 39.4061 39.4212 39.4062L39.8363 39.4069C39.8999 39.407 39.963 39.3946 40.0218 39.3703C40.0807 39.3461 40.1341 39.3105 40.1792 39.2656C40.2243 39.2207 40.2601 39.1673 40.2845 39.1085C40.309 39.0498 40.3216 38.9868 40.3217 38.9232L40.3225 38.4861Z" stroke="#808080" stroke-width="0.182857"/>
<path d="M42.9427 41.7644C42.9421 42.8725 42.9409 43.9499 42.939 44.9964C42.9372 46.0863 43.1055 47.2931 44.3379 47.6488C44.8834 47.806 45.4479 47.8563 46.0312 47.7996C46.0912 47.7939 46.147 47.766 46.1876 47.7214C46.2282 47.6768 46.2506 47.6186 46.2506 47.5583V46.9219C46.2506 46.8916 46.2446 46.8616 46.2328 46.8336C46.2211 46.8056 46.204 46.7803 46.1824 46.759C46.1607 46.7377 46.1351 46.7209 46.107 46.7097C46.0788 46.6984 46.0487 46.6929 46.0184 46.6933C45.6807 46.6988 45.3397 46.6607 44.9953 46.5791C44.2565 46.4044 44.1413 45.6721 44.1395 45.0293C44.1352 43.9511 44.1334 42.8543 44.134 41.7388C44.134 41.7313 44.1371 41.7241 44.1426 41.7188C44.1481 41.7135 44.1555 41.7105 44.1633 41.7105L45.9964 41.7096C46.1653 41.7096 46.2497 41.6255 46.2497 41.4572L46.2506 40.8337C46.2506 40.7694 46.225 40.7078 46.1794 40.6624C46.1338 40.6169 46.0719 40.5914 46.0074 40.5914H44.188C44.1514 40.5914 44.1331 40.5728 44.1331 40.5356C44.1343 40.1266 44.1355 39.7253 44.1368 39.3315C44.1374 39.2346 44.124 39.1419 44.0965 39.0536C44.087 39.0228 44.0679 38.9959 44.0421 38.9768C44.0162 38.9578 43.985 38.9475 43.953 38.9475L43.1173 38.9493C43.0003 38.9493 42.9418 39.0079 42.9418 39.1249V40.5576C42.9418 40.5665 42.9383 40.5751 42.9322 40.5815C42.926 40.5878 42.9176 40.5914 42.9089 40.5914H41.6975C41.5457 40.5914 41.4701 40.6673 41.4707 40.8191L41.4716 41.5002C41.4715 41.5443 41.487 41.5871 41.5152 41.621C41.5435 41.6549 41.5827 41.6779 41.6261 41.6858C41.7316 41.7047 41.8416 41.7138 41.9562 41.7132C42.2731 41.7102 42.5831 41.7087 42.886 41.7087C42.9238 41.7087 42.9427 41.7272 42.9427 41.7644Z" stroke="#808080" stroke-width="0.182857"/>
<path d="M32.8021 41.8312C33.5765 41.5084 35.0586 41.1665 35.6245 42.0433C35.8549 42.3998 35.886 42.7893 35.8842 43.2026C35.8781 44.5393 35.8781 45.9454 35.8842 47.4211C35.8845 47.4694 35.903 47.5158 35.9361 47.5511C35.9691 47.5863 36.0143 47.6078 36.0625 47.6113C36.3166 47.6296 36.5897 47.6317 36.8817 47.6177C36.935 47.6151 36.9854 47.5921 37.0223 47.5535C37.0592 47.5149 37.0799 47.4636 37.0801 47.4101C37.0855 45.8827 37.0849 44.3543 37.0782 42.825C37.0727 41.4234 36.2865 40.4661 34.8602 40.3893C33.9154 40.3387 33.0078 40.5018 32.1374 40.8785C32.1039 40.8931 32.0725 40.8894 32.0433 40.8675C31.6635 40.5804 31.2021 40.421 30.659 40.3893C29.6558 40.332 28.7412 40.4954 27.9153 40.8794C27.6428 41.0056 27.5063 41.2183 27.5057 41.5176C27.5002 43.4235 27.5008 45.3856 27.5075 47.4037C27.5081 47.547 27.5797 47.6189 27.7223 47.6195L28.5041 47.6232C28.6369 47.6238 28.7037 47.5576 28.7043 47.4248C28.7086 45.6419 28.7076 43.8636 28.7015 42.0899C28.7015 41.9281 28.7427 41.7571 28.9155 41.6995C29.539 41.4892 30.2842 41.3777 30.9178 41.619C31.6346 41.8915 31.7443 42.5982 31.7388 43.3132C31.729 44.7663 31.7278 46.1146 31.7351 47.358C31.7357 47.5354 31.825 47.6238 32.003 47.6232L32.7381 47.6213C32.7736 47.6213 32.8081 47.6101 32.8368 47.5894C32.8655 47.5688 32.887 47.5396 32.8981 47.5061C32.9225 47.4324 32.9347 47.3446 32.9347 47.2428C32.9335 45.8598 32.9319 44.4198 32.9301 42.9228C32.9295 42.5699 32.8746 42.2334 32.7655 41.9134C32.7521 41.8744 32.7643 41.847 32.8021 41.8312Z" stroke="#808080" stroke-width="0.182857"/>
<path d="M48.8351 47.4804C49.6552 47.7757 50.4762 47.911 51.3375 47.7721C52.367 47.6063 53.0244 47.0757 53.3096 46.1803C53.4126 45.856 53.4589 45.3571 53.4486 44.6836C53.44 44.1356 53.4385 43.5761 53.444 43.005C53.4586 41.4297 52.5544 40.477 50.9956 40.391C49.9063 40.3313 48.9268 40.4617 48.057 40.7823C47.7206 40.9061 47.552 41.1447 47.5514 41.4982C47.5484 44.7269 47.5496 47.7017 47.5551 50.4226C47.5553 50.4782 47.5776 50.5314 47.617 50.5707C47.6564 50.6099 47.7098 50.6319 47.7654 50.6319L48.5974 50.6301C48.6405 50.6301 48.6819 50.613 48.7125 50.5824C48.743 50.5519 48.7601 50.5105 48.7601 50.4674L48.7592 47.5334C48.7592 47.4804 48.7845 47.4627 48.8351 47.4804Z" stroke="#808080" stroke-width="0.182857"/>
<path d="M40.2315 40.7898C40.2315 40.7638 40.2264 40.7382 40.2165 40.7142C40.2066 40.6902 40.192 40.6685 40.1737 40.6501C40.1553 40.6318 40.1336 40.6172 40.1096 40.6073C40.0856 40.5974 40.06 40.5923 40.034 40.5923H39.2258C39.1999 40.5923 39.1742 40.5974 39.1502 40.6073C39.1263 40.6172 39.1045 40.6318 39.0862 40.6501C39.0678 40.6685 39.0533 40.6902 39.0434 40.7142C39.0334 40.7382 39.0283 40.7638 39.0283 40.7898V47.4257C39.0283 47.478 39.0491 47.5283 39.0862 47.5653C39.1232 47.6023 39.1734 47.6231 39.2258 47.6231H40.034C40.0864 47.6231 40.1366 47.6023 40.1737 47.5653C40.2107 47.5283 40.2315 47.478 40.2315 47.4257V40.7898Z" stroke="#808080" stroke-width="0.182857"/>
<path d="M16.5555 9.19474C16.5509 9.192 16.5457 9.19052 16.5404 9.19043C16.5351 9.19035 16.5298 9.19168 16.5252 9.19428C16.5206 9.19688 16.5167 9.20066 16.514 9.20523C16.5113 9.20981 16.5098 9.21502 16.5098 9.22034V16.7586C16.5097 16.7639 16.511 16.7692 16.5135 16.7739C16.5161 16.7785 16.5198 16.7824 16.5244 16.7851L31.0414 25.171C31.0461 25.1738 31.0515 25.1753 31.057 25.1753C31.0624 25.1753 31.0678 25.1738 31.0725 25.171L37.5996 21.4023C37.6044 21.3997 37.6084 21.3959 37.6111 21.3912C37.6139 21.3865 37.6154 21.3812 37.6154 21.3758C37.6154 21.3703 37.6139 21.365 37.6111 21.3603C37.6084 21.3557 37.6044 21.3518 37.5996 21.3493L16.5555 9.19474Z" stroke="#808080" stroke-width="0.182857"/>
<path d="M15.5935 17.3247C15.5935 17.3198 15.5923 17.3149 15.5899 17.3105C15.5875 17.3062 15.584 17.3026 15.5797 17.3L9.03712 13.5194C9.03279 13.5168 9.02784 13.5154 9.02278 13.5154C9.01773 13.5153 9.01275 13.5166 9.00837 13.5191C9.00398 13.5217 9.00035 13.5253 8.99785 13.5297C8.99535 13.5341 8.99407 13.5391 8.99414 13.5441L8.99506 29.7453C8.99499 29.7502 8.99622 29.7551 8.99862 29.7595C9.00103 29.7638 9.00453 29.7674 9.00877 29.77L15.5505 33.5588C15.5548 33.5614 15.5598 33.5628 15.5648 33.5628C15.5699 33.5629 15.5749 33.5616 15.5792 33.5591C15.5836 33.5565 15.5873 33.5529 15.5898 33.5485C15.5923 33.5441 15.5935 33.5391 15.5935 33.5341V17.3247Z" stroke="#808080" stroke-width="0.182857"/>
<path d="M16.5564 17.864C16.5517 17.8613 16.5464 17.8599 16.541 17.8599C16.5355 17.8598 16.5302 17.8612 16.5255 17.8639C16.5208 17.8666 16.5168 17.8705 16.5141 17.8751C16.5113 17.8798 16.5098 17.8851 16.5098 17.8905V33.5303C16.5098 33.5357 16.5113 33.541 16.5141 33.5457C16.5168 33.5504 16.5208 33.5543 16.5255 33.5569C16.5302 33.5596 16.5355 33.561 16.541 33.561C16.5464 33.561 16.5517 33.5595 16.5564 33.5568L30.0924 25.7369C30.0969 25.7342 30.1007 25.7303 30.1033 25.7256C30.1059 25.721 30.1073 25.7157 30.1073 25.7104C30.1073 25.7051 30.1059 25.6999 30.1033 25.6952C30.1007 25.6906 30.0969 25.6867 30.0924 25.6839L16.5564 17.864Z" stroke="#808080" stroke-width="0.182857"/>
<path d="M23.0924 38.8121C23.0924 38.5936 23.1775 38.3979 23.3704 38.2864C25.7341 36.9235 28.1341 35.5378 30.5704 34.1291C30.5776 34.125 30.5836 34.119 30.5878 34.1118C30.5919 34.1045 30.5941 34.0963 30.5941 34.088V26.5543C30.5941 26.5495 30.5928 26.5448 30.5904 26.5406C30.588 26.5364 30.5846 26.533 30.5805 26.5305C30.5764 26.5281 30.5718 26.5269 30.5672 26.5269C30.5625 26.5269 30.5579 26.5281 30.5539 26.5305L9.06637 38.9429C9.0447 38.9554 9.0267 38.9734 9.01419 38.995C9.00167 39.0167 8.99507 39.0413 8.99506 39.0663L8.99414 46.5387C8.99426 46.5441 8.99574 46.5493 8.99844 46.5538C9.00114 46.5584 9.00496 46.5622 9.0095 46.5648C9.01405 46.5674 9.01917 46.5687 9.02434 46.5686C9.02951 46.5686 9.03455 46.5671 9.03894 46.5643C11.3679 45.2173 13.5982 43.9251 15.7297 42.6878C16.1146 42.4647 16.5096 42.6485 16.5096 43.08C16.5102 45.7394 16.5099 48.335 16.5087 50.867C16.5088 50.8712 16.51 50.8753 16.5121 50.879C16.5143 50.8826 16.5174 50.8857 16.521 50.8878C16.5247 50.8899 16.5289 50.891 16.5331 50.8911C16.5373 50.8911 16.5415 50.89 16.5452 50.888L23.0394 47.1422C23.0561 47.1325 23.0698 47.1185 23.0793 47.1018C23.0888 47.0851 23.0936 47.0662 23.0933 47.0471C23.0927 44.1799 23.0924 41.4349 23.0924 38.8121Z" stroke="#808080" stroke-width="0.182857"/>
<path d="M48.8173 46.3825C49.6374 46.6303 50.5956 46.9283 51.4111 46.5425C51.9554 46.2853 52.2282 45.798 52.2294 45.0806C52.23 44.5863 52.2337 44.017 52.2404 43.3727C52.2495 42.4959 52.0255 41.8047 51.1378 41.5743C50.4338 41.3905 49.6557 41.503 48.9627 41.7023C48.8267 41.7413 48.7588 41.8303 48.7588 41.9693C48.7594 43.4053 48.7594 44.8505 48.7588 46.3048C48.7588 46.345 48.7783 46.3709 48.8173 46.3825Z" stroke="#808080" stroke-width="0.182857"/>
<mask id="path-12-inside-1_673_2856" fill="white">
<path d="M15.5319 43.8645C13.4303 45.0818 11.1979 46.3755 8.8348 47.7457C8.48554 47.9477 8.08691 47.7594 8.08691 47.337C8.08813 44.4101 8.08905 41.5572 8.08966 38.7784C8.08966 38.5583 8.17316 38.3999 8.34017 38.3029C10.582 37.0065 12.8302 35.7073 15.0849 34.4053C15.0896 34.4026 15.0936 34.3987 15.0963 34.394C15.099 34.3892 15.1005 34.3838 15.1005 34.3784C15.1005 34.3729 15.099 34.3675 15.0963 34.3628C15.0936 34.358 15.0896 34.3541 15.0849 34.3514C12.801 33.0263 10.5643 31.731 8.37491 30.4657C8.18474 30.3554 8.08966 30.1883 8.08966 29.9646C8.08844 23.8505 8.08844 18.1058 8.08966 12.7304C8.08966 12.3747 8.46451 12.1242 8.78543 12.3098C11.0394 13.6148 13.2938 14.9189 15.5484 16.222C15.5819 16.2415 15.5987 16.2321 15.5987 16.1937C15.5932 13.6702 15.5917 11.0581 15.5941 8.35733C15.5941 8.00442 16.0083 7.81973 16.299 7.98796C23.9095 12.382 31.3683 16.6907 38.6753 20.9141C39.0903 21.1537 38.9751 21.6675 38.6058 21.8805C36.2798 23.2209 33.9292 24.5792 31.5539 25.9555C31.5461 25.96 31.5396 25.9664 31.5351 25.9741C31.5306 25.9818 31.5283 25.9905 31.5283 25.9994C31.5277 28.7648 31.5277 31.5339 31.5283 34.3066C31.5283 34.5233 31.393 34.7144 31.2083 34.8213C28.8299 36.1958 26.4464 37.5724 24.0577 38.9512C24.0421 38.9604 24.0292 38.9735 24.0202 38.9892C24.0112 39.0049 24.0065 39.0227 24.0065 39.0408C24.0077 41.9055 24.0074 44.6725 24.0055 47.3416C24.0049 47.5433 23.912 47.6978 23.7267 47.8051C21.3142 49.1991 18.8368 50.6281 16.2945 52.0922C15.9772 52.275 15.5923 52.0437 15.5923 51.6789C15.5935 48.98 15.5938 46.3871 15.5932 43.9002C15.5932 43.8526 15.5728 43.8408 15.5319 43.8645ZM16.555 9.19482C16.5505 9.19208 16.5453 9.19059 16.5399 9.19051C16.5346 9.19043 16.5294 9.19175 16.5247 9.19435C16.5201 9.19695 16.5162 9.20073 16.5135 9.20531C16.5108 9.20989 16.5094 9.2151 16.5093 9.22042V16.7587C16.5092 16.764 16.5105 16.7693 16.5131 16.7739C16.5156 16.7786 16.5194 16.7825 16.5239 16.7852L31.041 25.171C31.0457 25.1739 31.051 25.1754 31.0565 25.1754C31.062 25.1754 31.0674 25.1739 31.0721 25.171L37.5991 21.4024C37.6039 21.3998 37.6079 21.3959 37.6107 21.3913C37.6135 21.3866 37.6149 21.3813 37.6149 21.3758C37.6149 21.3704 37.6135 21.3651 37.6107 21.3604C37.6079 21.3558 37.6039 21.3519 37.5991 21.3493L16.555 9.19482ZM15.5932 17.3246C15.5933 17.3197 15.592 17.3148 15.5896 17.3105C15.5872 17.3061 15.5837 17.3025 15.5795 17.3L9.03686 13.5194C9.03253 13.5168 9.02758 13.5154 9.02252 13.5153C9.01747 13.5153 9.01249 13.5166 9.00811 13.5191C9.00372 13.5216 9.00009 13.5253 8.99759 13.5296C8.99509 13.534 8.99381 13.539 8.99389 13.5441L8.9948 29.7452C8.99473 29.7502 8.99596 29.7551 8.99836 29.7594C9.00077 29.7637 9.00427 29.7673 9.00851 29.7699L15.5502 33.5587C15.5546 33.5613 15.5595 33.5627 15.5646 33.5628C15.5696 33.5628 15.5746 33.5615 15.579 33.559C15.5834 33.5565 15.587 33.5528 15.5895 33.5485C15.592 33.5441 15.5933 33.5391 15.5932 33.534V17.3246ZM16.5559 17.8641C16.5512 17.8614 16.5459 17.8599 16.5405 17.8599C16.5351 17.8599 16.5297 17.8613 16.525 17.864C16.5203 17.8667 16.5164 17.8705 16.5136 17.8752C16.5109 17.8799 16.5094 17.8852 16.5093 17.8906V33.5304C16.5094 33.5358 16.5109 33.5411 16.5136 33.5458C16.5164 33.5504 16.5203 33.5543 16.525 33.557C16.5297 33.5597 16.5351 33.5611 16.5405 33.561C16.5459 33.561 16.5512 33.5596 16.5559 33.5569L30.0919 25.737C30.0965 25.7342 30.1002 25.7303 30.1028 25.7257C30.1054 25.721 30.1068 25.7158 30.1068 25.7105C30.1068 25.7052 30.1054 25.6999 30.1028 25.6953C30.1002 25.6906 30.0965 25.6867 30.0919 25.684L16.5559 17.8641ZM23.0922 38.8122C23.0922 38.5937 23.1772 38.398 23.3701 38.2865C25.7338 36.9236 28.1338 35.5378 30.5701 34.1292C30.5773 34.1251 30.5833 34.1191 30.5875 34.1118C30.5917 34.1046 30.5939 34.0964 30.5939 34.0881V26.5544C30.5938 26.5496 30.5925 26.5448 30.5901 26.5407C30.5877 26.5365 30.5843 26.533 30.5802 26.5306C30.5762 26.5282 30.5716 26.5269 30.5669 26.5269C30.5622 26.5269 30.5577 26.5282 30.5537 26.5306L9.06611 38.9429C9.04445 38.9554 9.02645 38.9734 9.01393 38.9951C9.00141 39.0168 8.99482 39.0413 8.9948 39.0664L8.99389 46.5388C8.994 46.5441 8.99549 46.5493 8.99818 46.5539C9.00088 46.5585 9.0047 46.5623 9.00925 46.5649C9.0138 46.5675 9.01892 46.5688 9.02409 46.5687C9.02926 46.5686 9.03429 46.5672 9.03869 46.5644C11.3677 45.2174 13.5979 43.9252 15.7294 42.6879C16.1143 42.4648 16.5093 42.6485 16.5093 43.0801C16.5099 45.7394 16.5096 48.3351 16.5084 50.8671C16.5085 50.8713 16.5097 50.8754 16.5119 50.8791C16.514 50.8827 16.5171 50.8857 16.5208 50.8879C16.5244 50.89 16.5286 50.8911 16.5328 50.8911C16.5371 50.8912 16.5413 50.8901 16.545 50.8881L23.0391 47.1423C23.0558 47.1325 23.0696 47.1186 23.079 47.1019C23.0885 47.0852 23.0934 47.0663 23.0931 47.0472C23.0925 44.18 23.0922 41.435 23.0922 38.8122Z"/>
</mask>
<path d="M15.5319 43.8645C13.4303 45.0818 11.1979 46.3755 8.8348 47.7457C8.48554 47.9477 8.08691 47.7594 8.08691 47.337C8.08813 44.4101 8.08905 41.5572 8.08966 38.7784C8.08966 38.5583 8.17316 38.3999 8.34017 38.3029C10.582 37.0065 12.8302 35.7073 15.0849 34.4053C15.0896 34.4026 15.0936 34.3987 15.0963 34.394C15.099 34.3892 15.1005 34.3838 15.1005 34.3784C15.1005 34.3729 15.099 34.3675 15.0963 34.3628C15.0936 34.358 15.0896 34.3541 15.0849 34.3514C12.801 33.0263 10.5643 31.731 8.37491 30.4657C8.18474 30.3554 8.08966 30.1883 8.08966 29.9646C8.08844 23.8505 8.08844 18.1058 8.08966 12.7304C8.08966 12.3747 8.46451 12.1242 8.78543 12.3098C11.0394 13.6148 13.2938 14.9189 15.5484 16.222C15.5819 16.2415 15.5987 16.2321 15.5987 16.1937C15.5932 13.6702 15.5917 11.0581 15.5941 8.35733C15.5941 8.00442 16.0083 7.81973 16.299 7.98796C23.9095 12.382 31.3683 16.6907 38.6753 20.9141C39.0903 21.1537 38.9751 21.6675 38.6058 21.8805C36.2798 23.2209 33.9292 24.5792 31.5539 25.9555C31.5461 25.96 31.5396 25.9664 31.5351 25.9741C31.5306 25.9818 31.5283 25.9905 31.5283 25.9994C31.5277 28.7648 31.5277 31.5339 31.5283 34.3066C31.5283 34.5233 31.393 34.7144 31.2083 34.8213C28.8299 36.1958 26.4464 37.5724 24.0577 38.9512C24.0421 38.9604 24.0292 38.9735 24.0202 38.9892C24.0112 39.0049 24.0065 39.0227 24.0065 39.0408C24.0077 41.9055 24.0074 44.6725 24.0055 47.3416C24.0049 47.5433 23.912 47.6978 23.7267 47.8051C21.3142 49.1991 18.8368 50.6281 16.2945 52.0922C15.9772 52.275 15.5923 52.0437 15.5923 51.6789C15.5935 48.98 15.5938 46.3871 15.5932 43.9002C15.5932 43.8526 15.5728 43.8408 15.5319 43.8645ZM16.555 9.19482C16.5505 9.19208 16.5453 9.19059 16.5399 9.19051C16.5346 9.19043 16.5294 9.19175 16.5247 9.19435C16.5201 9.19695 16.5162 9.20073 16.5135 9.20531C16.5108 9.20989 16.5094 9.2151 16.5093 9.22042V16.7587C16.5092 16.764 16.5105 16.7693 16.5131 16.7739C16.5156 16.7786 16.5194 16.7825 16.5239 16.7852L31.041 25.171C31.0457 25.1739 31.051 25.1754 31.0565 25.1754C31.062 25.1754 31.0674 25.1739 31.0721 25.171L37.5991 21.4024C37.6039 21.3998 37.6079 21.3959 37.6107 21.3913C37.6135 21.3866 37.6149 21.3813 37.6149 21.3758C37.6149 21.3704 37.6135 21.3651 37.6107 21.3604C37.6079 21.3558 37.6039 21.3519 37.5991 21.3493L16.555 9.19482ZM15.5932 17.3246C15.5933 17.3197 15.592 17.3148 15.5896 17.3105C15.5872 17.3061 15.5837 17.3025 15.5795 17.3L9.03686 13.5194C9.03253 13.5168 9.02758 13.5154 9.02252 13.5153C9.01747 13.5153 9.01249 13.5166 9.00811 13.5191C9.00372 13.5216 9.00009 13.5253 8.99759 13.5296C8.99509 13.534 8.99381 13.539 8.99389 13.5441L8.9948 29.7452C8.99473 29.7502 8.99596 29.7551 8.99836 29.7594C9.00077 29.7637 9.00427 29.7673 9.00851 29.7699L15.5502 33.5587C15.5546 33.5613 15.5595 33.5627 15.5646 33.5628C15.5696 33.5628 15.5746 33.5615 15.579 33.559C15.5834 33.5565 15.587 33.5528 15.5895 33.5485C15.592 33.5441 15.5933 33.5391 15.5932 33.534V17.3246ZM16.5559 17.8641C16.5512 17.8614 16.5459 17.8599 16.5405 17.8599C16.5351 17.8599 16.5297 17.8613 16.525 17.864C16.5203 17.8667 16.5164 17.8705 16.5136 17.8752C16.5109 17.8799 16.5094 17.8852 16.5093 17.8906V33.5304C16.5094 33.5358 16.5109 33.5411 16.5136 33.5458C16.5164 33.5504 16.5203 33.5543 16.525 33.557C16.5297 33.5597 16.5351 33.5611 16.5405 33.561C16.5459 33.561 16.5512 33.5596 16.5559 33.5569L30.0919 25.737C30.0965 25.7342 30.1002 25.7303 30.1028 25.7257C30.1054 25.721 30.1068 25.7158 30.1068 25.7105C30.1068 25.7052 30.1054 25.6999 30.1028 25.6953C30.1002 25.6906 30.0965 25.6867 30.0919 25.684L16.5559 17.8641ZM23.0922 38.8122C23.0922 38.5937 23.1772 38.398 23.3701 38.2865C25.7338 36.9236 28.1338 35.5378 30.5701 34.1292C30.5773 34.1251 30.5833 34.1191 30.5875 34.1118C30.5917 34.1046 30.5939 34.0964 30.5939 34.0881V26.5544C30.5938 26.5496 30.5925 26.5448 30.5901 26.5407C30.5877 26.5365 30.5843 26.533 30.5802 26.5306C30.5762 26.5282 30.5716 26.5269 30.5669 26.5269C30.5622 26.5269 30.5577 26.5282 30.5537 26.5306L9.06611 38.9429C9.04445 38.9554 9.02645 38.9734 9.01393 38.9951C9.00141 39.0168 8.99482 39.0413 8.9948 39.0664L8.99389 46.5388C8.994 46.5441 8.99549 46.5493 8.99818 46.5539C9.00088 46.5585 9.0047 46.5623 9.00925 46.5649C9.0138 46.5675 9.01892 46.5688 9.02409 46.5687C9.02926 46.5686 9.03429 46.5672 9.03869 46.5644C11.3677 45.2174 13.5979 43.9252 15.7294 42.6879C16.1143 42.4648 16.5093 42.6485 16.5093 43.0801C16.5099 45.7394 16.5096 48.3351 16.5084 50.8671C16.5085 50.8713 16.5097 50.8754 16.5119 50.8791C16.514 50.8827 16.5171 50.8857 16.5208 50.8879C16.5244 50.89 16.5286 50.8911 16.5328 50.8911C16.5371 50.8912 16.5413 50.8901 16.545 50.8881L23.0391 47.1423C23.0558 47.1325 23.0696 47.1186 23.079 47.1019C23.0885 47.0852 23.0934 47.0663 23.0931 47.0472C23.0925 44.18 23.0922 41.435 23.0922 38.8122Z" fill="black" stroke="white" stroke-width="2" mask="url(#path-12-inside-1_673_2856)"/>
<path d="M17.0088 16.4881V10.0345L36.6447 21.3757L31.056 24.6026L17.0088 16.4881ZM37.1804 21.6159L37.1805 21.6161L37.1804 21.6159Z" stroke="white"/>
<mask id="path-14-inside-2_673_2856" fill="white">
<path d="M15.5925 17.3245V33.5338C15.5926 33.5389 15.5913 33.5439 15.5888 33.5483C15.5863 33.5527 15.5826 33.5563 15.5783 33.5588C15.5739 33.5613 15.5689 33.5626 15.5638 33.5626C15.5588 33.5625 15.5538 33.5611 15.5495 33.5585L9.0078 29.7697C9.00355 29.7672 9.00005 29.7635 8.99765 29.7592C8.99524 29.7549 8.99401 29.75 8.99408 29.745L8.99317 13.5439C8.99309 13.5388 8.99437 13.5339 8.99687 13.5295C8.99938 13.5251 9.00301 13.5214 9.00739 13.5189C9.01177 13.5164 9.01675 13.5151 9.0218 13.5151C9.02686 13.5152 9.03181 13.5166 9.03614 13.5192L15.5788 17.2998C15.583 17.3023 15.5865 17.306 15.5889 17.3103C15.5913 17.3146 15.5926 17.3195 15.5925 17.3245Z"/>
</mask>
<path d="M15.5925 17.3245L14.5926 17.3101L14.5925 17.3173V17.3245H15.5925ZM15.5925 33.5338H14.5925V33.5411L14.5926 33.5484L15.5925 33.5338ZM15.5495 33.5585L16.0657 32.7021L16.0583 32.6976L16.0507 32.6932L15.5495 33.5585ZM9.0078 29.7697L8.49177 30.6263L8.49915 30.6307L8.50661 30.6351L9.0078 29.7697ZM8.99408 29.745L9.99398 29.7594L9.99408 29.7522L9.99408 29.745L8.99408 29.745ZM8.99317 13.5439L9.99317 13.5438L9.99317 13.5366L9.99306 13.5294L8.99317 13.5439ZM9.03614 13.5192L8.5199 14.3757L8.52782 14.3804L8.53582 14.385L9.03614 13.5192ZM15.5788 17.2998L16.0948 16.4432L16.087 16.4385L16.0791 16.4339L15.5788 17.2998ZM14.5925 17.3245V33.5338H16.5925V17.3245H14.5925ZM14.5926 33.5484C14.5901 33.3751 14.6339 33.2043 14.7197 33.0536L16.4579 34.0429C16.5486 33.8835 16.595 33.7027 16.5924 33.5193L14.5926 33.5484ZM14.7197 33.0536C14.8054 32.9031 14.9298 32.7781 15.0801 32.6917L16.0764 34.4259C16.2355 34.3345 16.3672 34.2022 16.4579 34.0429L14.7197 33.0536ZM15.0801 32.6917C15.2305 32.6053 15.4012 32.5608 15.5744 32.5626L15.5533 34.5625C15.7366 34.5645 15.9172 34.5174 16.0764 34.4259L15.0801 32.6917ZM15.5744 32.5626C15.7477 32.5645 15.9174 32.6127 16.0657 32.7021L15.0333 34.415C15.1903 34.5096 15.3698 34.5606 15.5533 34.5625L15.5744 32.5626ZM16.0507 32.6932L9.50898 28.9044L8.50661 30.6351L15.0483 34.4239L16.0507 32.6932ZM9.52382 28.9131C9.66932 29.0008 9.78931 29.1251 9.8718 29.2736L8.12349 30.2449C8.2108 30.402 8.33778 30.5335 8.49177 30.6263L9.52382 28.9131ZM9.8718 29.2736C9.95433 29.4221 9.99642 29.5896 9.99398 29.7594L7.99419 29.7306C7.9916 29.9103 8.03615 30.0876 8.12349 30.2449L9.8718 29.2736ZM9.99408 29.745L9.99317 13.5438L7.99317 13.5439L7.99408 29.7451L9.99408 29.745ZM9.99306 13.5294C9.99558 13.7027 9.95167 13.8735 9.86597 14.0241L8.12778 13.0348C8.03707 13.1942 7.99061 13.375 7.99327 13.5584L9.99306 13.5294ZM9.86597 14.0241C9.78026 14.1747 9.65581 14.2997 9.50551 14.386L8.50926 12.6518C8.3502 12.7432 8.21849 12.8754 8.12778 13.0348L9.86597 14.0241ZM9.50551 14.386C9.35527 14.4723 9.18464 14.5169 9.0113 14.5151L9.03231 12.5152C8.84886 12.5133 8.66828 12.5604 8.50926 12.6518L9.50551 14.386ZM9.0113 14.5151C8.83806 14.5133 8.66839 14.4652 8.5199 14.3757L9.55237 12.6628C9.39523 12.568 9.21566 12.5171 9.03231 12.5152L9.0113 14.5151ZM8.53582 14.385L15.0785 18.1656L16.0791 16.4339L9.53645 12.6534L8.53582 14.385ZM15.0627 18.1564C14.9171 18.0686 14.7972 17.9443 14.7148 17.7959L16.4631 16.8246C16.3758 16.6676 16.2489 16.536 16.0948 16.4432L15.0627 18.1564ZM14.7148 17.7959C14.6323 17.6475 14.5901 17.48 14.5926 17.3101L16.5924 17.3389C16.595 17.159 16.5503 16.9817 16.4631 16.8246L14.7148 17.7959Z" fill="white" mask="url(#path-14-inside-2_673_2856)"/>
<path d="M29.1378 25.7104L29.6375 25.9992L17.0088 33.2949L29.1378 25.7104ZM29.1378 25.7104L17.0088 32.7175V18.7034L29.1378 25.7104ZM16.5401 33.5303L16.5529 33.5525L16.5401 33.5303H16.6013L16.5554 33.5568C16.5507 33.5595 16.5454 33.561 16.54 33.561C16.5346 33.561 16.5292 33.5596 16.5245 33.5569C16.5198 33.5543 16.5159 33.5504 16.5131 33.5457C16.5103 33.541 16.5089 33.5357 16.5088 33.5303H16.5392H16.5396H16.5396H16.5399H16.5401ZM16.9606 33.3228L16.6034 33.5291L16.9606 33.3228ZM30.1023 25.6952C30.1049 25.6999 30.1063 25.7051 30.1063 25.7104C30.1063 25.7158 30.1049 25.721 30.1023 25.7256C30.0997 25.7303 30.096 25.7342 30.0914 25.7369L30.1023 25.6952Z" stroke="white"/>
<path d="M23.1191 37.8535L23.1196 37.8532C25.4101 36.5326 27.7346 35.1905 30.0932 33.8269V27.3735L9.49405 39.2727L9.49326 45.7233C11.5678 44.523 13.5626 43.367 15.4777 42.2554L15.478 42.2552C15.7833 42.0783 16.1564 42.0293 16.4831 42.1895C16.824 42.3566 17.0086 42.7001 17.0086 43.0799L23.1191 37.8535ZM23.1191 37.8535C22.7355 38.0754 22.5915 38.4612 22.5915 38.8121C22.5915 41.3663 22.5917 44.0363 22.5923 46.8223M23.1191 37.8535L22.5923 46.8223M22.5923 46.8223L17.008 50.0433C17.009 47.7728 17.0091 45.4517 17.0086 43.08L22.5923 46.8223ZM9.31549 39.3758L9.31589 39.3756C9.31573 39.3757 9.31556 39.3758 9.31539 39.3759L9.31549 39.3758ZM9.13659 39.0663L9.01321 38.995C9.02573 38.9734 9.04372 38.9554 9.06539 38.9429L9.13659 39.0663ZM30.3194 33.6961L30.3191 33.6963L30.3194 33.6961Z" stroke="white"/>
<path d="M39.4369 38.9061L39.4376 38.4999L39.8218 38.5006L39.8211 38.9067L39.4369 38.9061Z" fill="black" stroke="white"/>
<mask id="path-19-inside-3_673_2856" fill="white">
<path d="M42.885 41.7087C42.5821 41.7087 42.2722 41.7102 41.9552 41.7132C41.8406 41.7138 41.7306 41.7047 41.6252 41.6858C41.5817 41.6779 41.5425 41.6549 41.5142 41.621C41.486 41.5871 41.4706 41.5443 41.4706 41.5002L41.4697 40.8191C41.4691 40.6673 41.5447 40.5914 41.6965 40.5914H42.9079C42.9166 40.5914 42.925 40.5878 42.9312 40.5815C42.9373 40.5751 42.9408 40.5665 42.9408 40.5576V39.1249C42.9408 39.0079 42.9993 38.9493 43.1164 38.9493L43.952 38.9475C43.984 38.9475 44.0152 38.9578 44.0411 38.9768C44.0669 38.9959 44.086 39.0228 44.0956 39.0536C44.123 39.1419 44.1364 39.2346 44.1358 39.3315C44.1346 39.7253 44.1333 40.1266 44.1321 40.5356C44.1321 40.5728 44.1504 40.5914 44.187 40.5914H46.0064C46.0709 40.5914 46.1328 40.6169 46.1784 40.6624C46.224 40.7078 46.2496 40.7694 46.2496 40.8337L46.2487 41.4572C46.2487 41.6255 46.1643 41.7096 45.9954 41.7096L44.1623 41.7105C44.1545 41.7105 44.1471 41.7135 44.1416 41.7188C44.1361 41.7241 44.133 41.7313 44.133 41.7388C44.1324 42.8543 44.1343 43.9511 44.1385 45.0293C44.1404 45.6721 44.2556 46.4044 44.9943 46.5791C45.3387 46.6607 45.6797 46.6988 46.0174 46.6933C46.0477 46.6929 46.0778 46.6984 46.106 46.7097C46.1341 46.7209 46.1598 46.7377 46.1814 46.759C46.203 46.7803 46.2202 46.8056 46.2319 46.8336C46.2436 46.8616 46.2496 46.8916 46.2496 46.9219V47.5583C46.2497 47.6186 46.2272 47.6768 46.1866 47.7214C46.146 47.766 46.0902 47.7939 46.0302 47.7996C45.4469 47.8563 44.8825 47.806 44.3369 47.6488C43.1045 47.2931 42.9362 46.0863 42.9381 44.9964C42.9399 43.9499 42.9411 42.8725 42.9417 41.7644C42.9417 41.7272 42.9228 41.7087 42.885 41.7087Z"/>
</mask>
<path d="M42.885 41.7087C42.5821 41.7087 42.2722 41.7102 41.9552 41.7132C41.8406 41.7138 41.7306 41.7047 41.6252 41.6858C41.5817 41.6779 41.5425 41.6549 41.5142 41.621C41.486 41.5871 41.4706 41.5443 41.4706 41.5002L41.4697 40.8191C41.4691 40.6673 41.5447 40.5914 41.6965 40.5914H42.9079C42.9166 40.5914 42.925 40.5878 42.9312 40.5815C42.9373 40.5751 42.9408 40.5665 42.9408 40.5576V39.1249C42.9408 39.0079 42.9993 38.9493 43.1164 38.9493L43.952 38.9475C43.984 38.9475 44.0152 38.9578 44.0411 38.9768C44.0669 38.9959 44.086 39.0228 44.0956 39.0536C44.123 39.1419 44.1364 39.2346 44.1358 39.3315C44.1346 39.7253 44.1333 40.1266 44.1321 40.5356C44.1321 40.5728 44.1504 40.5914 44.187 40.5914H46.0064C46.0709 40.5914 46.1328 40.6169 46.1784 40.6624C46.224 40.7078 46.2496 40.7694 46.2496 40.8337L46.2487 41.4572C46.2487 41.6255 46.1643 41.7096 45.9954 41.7096L44.1623 41.7105C44.1545 41.7105 44.1471 41.7135 44.1416 41.7188C44.1361 41.7241 44.133 41.7313 44.133 41.7388C44.1324 42.8543 44.1343 43.9511 44.1385 45.0293C44.1404 45.6721 44.2556 46.4044 44.9943 46.5791C45.3387 46.6607 45.6797 46.6988 46.0174 46.6933C46.0477 46.6929 46.0778 46.6984 46.106 46.7097C46.1341 46.7209 46.1598 46.7377 46.1814 46.759C46.203 46.7803 46.2202 46.8056 46.2319 46.8336C46.2436 46.8616 46.2496 46.8916 46.2496 46.9219V47.5583C46.2497 47.6186 46.2272 47.6768 46.1866 47.7214C46.146 47.766 46.0902 47.7939 46.0302 47.7996C45.4469 47.8563 44.8825 47.806 44.3369 47.6488C43.1045 47.2931 42.9362 46.0863 42.9381 44.9964C42.9399 43.9499 42.9411 42.8725 42.9417 41.7644C42.9417 41.7272 42.9228 41.7087 42.885 41.7087Z" fill="black"/>
<path d="M41.9552 41.7132L41.9605 42.7132L41.9648 42.7132L41.9552 41.7132ZM41.6252 41.6858L41.4455 42.6695L41.4488 42.6701L41.6252 41.6858ZM41.4706 41.5002L42.4706 41.5019L42.4706 41.4989L41.4706 41.5002ZM41.4697 40.8191L42.4697 40.8177L42.4697 40.815L41.4697 40.8191ZM42.9079 40.5914V41.5914V40.5914ZM43.1164 38.9493V39.9493L43.1186 39.9493L43.1164 38.9493ZM43.952 38.9475L43.951 37.9475L43.9498 37.9475L43.952 38.9475ZM44.0956 39.0536L45.0506 38.7572L45.0505 38.7567L44.0956 39.0536ZM44.1358 39.3315L43.1358 39.3252L43.1358 39.3284L44.1358 39.3315ZM44.1321 40.5356L43.1321 40.5326V40.5356H44.1321ZM46.0064 40.5914V41.5914V40.5914ZM46.2496 40.8337L47.2496 40.8351V40.8337H46.2496ZM46.2487 41.4572L45.2487 41.4558V41.4572H46.2487ZM45.9954 41.7096V40.7096L45.9949 40.7096L45.9954 41.7096ZM44.1623 41.7105V42.7105L44.1628 42.7105L44.1623 41.7105ZM44.133 41.7388L45.133 41.7394V41.7388H44.133ZM44.1385 45.0293L45.1385 45.0265L45.1385 45.0254L44.1385 45.0293ZM44.9943 46.5791L45.2251 45.606L45.2243 45.6059L44.9943 46.5791ZM46.0174 46.6933L46.0014 45.6935L46.0011 45.6935L46.0174 46.6933ZM46.2496 46.9219L45.2496 46.9218V46.9219H46.2496ZM46.2496 47.5583H45.2496L45.2496 47.5589L46.2496 47.5583ZM46.0302 47.7996L45.9358 46.8041L45.9335 46.8043L46.0302 47.7996ZM44.3369 47.6488L44.0597 48.6096L44.0599 48.6096L44.3369 47.6488ZM42.9381 44.9964L41.9381 44.9947L41.9381 44.9947L42.9381 44.9964ZM42.9417 41.7644L43.9417 41.765V41.7644H42.9417ZM42.885 40.7087C42.5788 40.7087 42.2656 40.7102 41.9456 40.7133L41.9648 42.7132C42.2787 42.7102 42.5855 42.7087 42.885 42.7087V40.7087ZM41.9499 40.7132C41.892 40.7135 41.843 40.7089 41.8015 40.7015L41.4488 42.6701C41.6182 42.7005 41.7892 42.7141 41.9605 42.7132L41.9499 40.7132ZM41.8048 40.7021C41.9919 40.7362 42.1611 40.835 42.2828 40.9812L40.7457 42.2608C40.9239 42.4749 41.1716 42.6195 41.4455 42.6695L41.8048 40.7021ZM42.2828 40.9812C42.4045 41.1274 42.471 41.3117 42.4706 41.5019L40.4706 41.4985C40.4702 41.777 40.5675 42.0468 40.7457 42.2608L42.2828 40.9812ZM42.4706 41.4989L42.4697 40.8177L40.4697 40.8204L40.4706 41.5015L42.4706 41.4989ZM42.4697 40.815C42.47 40.893 42.4509 41.1367 42.2345 41.354C42.0181 41.5713 41.7744 41.5914 41.6965 41.5914V39.5914C41.4668 39.5914 41.1094 39.6494 40.8174 39.9426C40.5254 40.2358 40.4688 40.5934 40.4697 40.8231L42.4697 40.815ZM41.6965 41.5914H42.9079V39.5914H41.6965V41.5914ZM42.9079 41.5914C43.1908 41.5914 43.4564 41.4756 43.6479 41.2788L42.2144 39.8841C42.3936 39.7 42.6424 39.5914 42.9079 39.5914V41.5914ZM43.6479 41.2788C43.8385 41.083 43.9408 40.823 43.9408 40.5576H41.9408C41.9408 40.31 42.0362 40.0673 42.2144 39.8841L43.6479 41.2788ZM43.9408 40.5576V39.1249H41.9408V40.5576H43.9408ZM43.9408 39.1249C43.9408 39.2205 43.9162 39.4759 43.6918 39.7003C43.4674 39.9248 43.212 39.9493 43.1164 39.9493V37.9493C42.9037 37.9493 42.5605 38.0032 42.2776 38.2861C41.9947 38.569 41.9408 38.9122 41.9408 39.1249H43.9408ZM43.1186 39.9493L43.9542 39.9475L43.9498 37.9475L43.1142 37.9493L43.1186 39.9493ZM43.953 39.9475C43.7701 39.9477 43.5928 39.889 43.4468 39.7811L44.6353 38.1726C44.4377 38.0266 44.198 37.9473 43.951 37.9475L43.953 39.9475ZM43.4468 39.7811C43.301 39.6734 43.1941 39.5223 43.1406 39.3504L45.0505 38.7567C44.9779 38.5234 44.8328 38.3185 44.6353 38.1726L43.4468 39.7811ZM43.1405 39.35C43.1385 39.3435 43.1372 39.3375 43.1365 39.3326C43.1358 39.3277 43.1358 39.325 43.1358 39.3252L45.1358 39.3378C45.137 39.1432 45.1099 38.9481 45.0506 38.7572L43.1405 39.35ZM43.1358 39.3284C43.1346 39.7222 43.1334 40.1236 43.1321 40.5326L45.1321 40.5386C45.1333 40.1297 45.1346 39.7283 45.1358 39.3346L43.1358 39.3284ZM43.1321 40.5356C43.1321 40.7043 43.1737 41.0152 43.4329 41.2787C43.6951 41.5453 44.0104 41.5914 44.187 41.5914V39.5914C44.3271 39.5914 44.6148 39.6282 44.8588 39.8762C45.0997 40.1211 45.1321 40.4042 45.1321 40.5356H43.1321ZM44.187 41.5914H46.0064V39.5914H44.187V41.5914ZM46.0064 41.5914C45.8069 41.5914 45.6148 41.5125 45.4726 41.3708L46.8842 39.9539C46.6507 39.7214 46.3349 39.5914 46.0064 39.5914V41.5914ZM45.4726 41.3708C45.3303 41.229 45.2496 41.0358 45.2496 40.8337H47.2496C47.2496 40.503 47.1177 40.1866 46.8842 39.9539L45.4726 41.3708ZM45.2496 40.8322L45.2487 41.4558L47.2487 41.4587L47.2496 40.8351L45.2496 40.8322ZM45.2487 41.4572C45.2487 41.3863 45.2673 41.1496 45.4796 40.9381C45.6912 40.7273 45.9266 40.7096 45.9954 40.7096V42.7096C46.2331 42.7096 46.5952 42.6498 46.8912 42.3549C47.1879 42.0593 47.2487 41.6964 47.2487 41.4572H45.2487ZM45.9949 40.7096L44.1618 40.7105L44.1628 42.7105L45.9959 42.7096L45.9949 40.7096ZM44.1623 40.7105C43.8992 40.7105 43.641 40.8115 43.4458 41.0005L44.8374 42.437C44.6532 42.6155 44.4098 42.7105 44.1623 42.7105V40.7105ZM43.4458 41.0005C43.2495 41.1907 43.133 41.4556 43.133 41.7388H45.133C45.133 42.007 45.0228 42.2575 44.8374 42.437L43.4458 41.0005ZM43.133 41.7383C43.1324 42.8552 43.1343 43.9535 43.1385 45.0333L45.1385 45.0254C45.1343 43.9487 45.1324 42.8533 45.133 41.7394L43.133 41.7383ZM43.1385 45.0322C43.1395 45.3868 43.1676 45.8959 43.3699 46.3713C43.5961 46.9029 44.0396 47.3809 44.7643 47.5522L45.2243 45.6059C45.1929 45.5984 45.2008 45.5947 45.2182 45.6104C45.232 45.6228 45.2255 45.6241 45.2102 45.5882C45.1936 45.5491 45.1739 45.4826 45.1595 45.3797C45.1453 45.2781 45.1389 45.1603 45.1385 45.0265L43.1385 45.0322ZM44.7635 47.5521C45.1849 47.652 45.6089 47.7001 46.0336 47.6932L46.0011 45.6935C45.7505 45.6975 45.4924 45.6695 45.2251 45.606L44.7635 47.5521ZM46.0334 47.6932C45.931 47.6948 45.8294 47.6761 45.7344 47.6381L46.4776 45.7813C46.3263 45.7207 46.1644 45.6909 46.0014 45.6935L46.0334 47.6932ZM45.7344 47.6381C45.6394 47.6 45.5529 47.5435 45.4799 47.4717L46.8829 46.0463C46.7667 45.9319 46.6289 45.8418 46.4776 45.7813L45.7344 47.6381ZM45.4799 47.4717C45.407 47.3999 45.349 47.3143 45.3095 47.2199L47.1543 46.4473C47.0913 46.297 46.999 46.1606 46.8829 46.0463L45.4799 47.4717ZM45.3095 47.2199C45.27 47.1255 45.2496 47.0242 45.2496 46.9218L47.2496 46.922C47.2496 46.759 47.2172 46.5976 47.1543 46.4473L45.3095 47.2199ZM45.2496 46.9219V47.5583H47.2496V46.9219H45.2496ZM45.2496 47.5589C45.2495 47.3703 45.3198 47.1883 45.4467 47.0487L46.9265 48.3941C47.1346 48.1652 47.2498 47.8669 47.2496 47.5576L45.2496 47.5589ZM45.4467 47.0487C45.5735 46.9092 45.748 46.8219 45.9358 46.8041L46.1245 48.7952C46.4325 48.766 46.7185 48.6229 46.9265 48.3941L45.4467 47.0487ZM45.9335 46.8043C45.4716 46.8492 45.0342 46.8091 44.6139 46.6879L44.0599 48.6096C44.7307 48.803 45.4221 48.8634 46.1269 48.7949L45.9335 46.8043ZM44.6142 46.688C44.3318 46.6065 44.198 46.4601 44.1012 46.2217C43.9817 45.9274 43.9372 45.5161 43.9381 44.9981L41.9381 44.9947C41.9371 45.5666 41.9758 46.3036 42.2481 46.9741C42.5431 47.7005 43.1096 48.3354 44.0597 48.6096L44.6142 46.688ZM43.9381 44.9982C43.9399 43.9512 43.9411 42.8735 43.9417 41.765L41.9417 41.7639C41.9411 42.8716 41.9399 43.9485 41.9381 44.9947L43.9381 44.9982ZM43.9417 41.7644C43.9417 41.5875 43.8955 41.2721 43.6289 41.0098C43.3652 40.7504 43.054 40.7087 42.885 40.7087V42.7087C42.7539 42.7087 42.471 42.6762 42.2262 42.4354C41.9785 42.1917 41.9417 41.9041 41.9417 41.7644H43.9417Z" fill="white" mask="url(#path-19-inside-3_673_2856)"/>
<path d="M27.9143 40.8794C27.6418 41.0056 27.5053 41.2183 27.5047 41.5176C27.4992 43.4235 27.4998 45.3856 27.5065 47.4037L27.9143 40.8794ZM27.9143 40.8794C28.7402 40.4954 29.6548 40.332 30.6581 40.3893L27.9143 40.8794ZM28.0056 47.1208C27.9998 45.2025 27.9995 43.3352 28.0047 41.519L28.0047 41.5186C28.0048 41.4465 28.0204 41.4159 28.0283 41.4036C28.0363 41.3912 28.058 41.3638 28.1244 41.3331L28.1244 41.3331L28.1251 41.3328C28.8686 40.9871 29.6997 40.8355 30.6292 40.8885C31.088 40.9153 31.4508 41.0472 31.7407 41.2663L31.7423 41.2675C31.9152 41.3972 32.1369 41.4232 32.335 41.3373C33.1346 40.9913 33.965 40.8422 34.8323 40.8886L28.0056 47.1208ZM28.0056 47.1208L28.204 47.1218C28.2075 45.441 28.2063 43.7643 28.2006 42.0916L28.2006 42.0899C28.2006 41.8969 28.2471 41.3954 28.7556 41.2254C29.4217 41.0009 30.3012 40.8496 31.0944 41.1517L28.0056 47.1208ZM36.58 47.1264C36.5845 45.6942 36.5835 44.2611 36.5773 42.8272L36.5773 42.8269C36.5749 42.2174 36.4037 41.7547 36.1267 41.4418C35.8538 41.1336 35.4345 40.9211 34.8325 40.8886L36.58 47.1264ZM36.58 47.1264C36.5126 47.1271 36.4466 47.1268 36.3821 47.1255C36.3771 45.758 36.3775 44.4511 36.3832 43.2049V43.2048C36.3851 42.7748 36.3577 42.2583 36.0436 41.7721C35.6193 41.1147 34.8816 40.9693 34.2754 40.9876C33.6573 41.0063 33.0313 41.1935 32.6088 41.3696L32.6078 41.3701C32.5149 41.409 32.381 41.4934 32.3067 41.6606C32.2331 41.8264 32.2593 41.9809 32.2913 42.0748C32.382 42.3408 32.4286 42.6228 32.4291 42.9234C32.4291 42.9235 32.4291 42.9236 32.4291 42.9237L32.9291 42.9228C32.931 44.4198 32.9325 45.8598 32.9337 47.2428M36.58 47.1264L32.4337 47.2433C32.4337 47.2029 32.4336 47.1625 32.4336 47.1221L32.7359 47.1213M32.9337 47.2428H32.7365H32.7362H32.5863L32.5437 47.1837C32.6 47.1432 32.6672 47.1215 32.7359 47.1213M32.9337 47.2428L32.7365 47.243L32.7362 47.243L32.5865 47.2431L32.7367 47.4517L32.5865 47.2431L32.8971 47.5061C32.9215 47.4324 32.9337 47.3446 32.9337 47.2428ZM32.7359 47.1213C32.736 47.1213 32.7361 47.1213 32.7363 47.1213L32.7359 47.1213ZM32.2378 43.3169C32.2407 42.944 32.216 42.5106 32.0644 42.1195C31.9034 41.7042 31.6014 41.3444 31.0945 41.1517L32.2378 43.3169ZM32.2378 43.3169C32.2378 43.3168 32.2378 43.3167 32.2378 43.3166L31.7378 43.3132L32.2378 43.3169Z" fill="black" stroke="white"/>
<path d="M48.2592 47.5336V47.5334C48.2592 47.4597 48.2723 47.2239 48.4918 47.0705C48.7087 46.919 48.9324 46.9848 49 47.0084L49.0045 47.0099L49.0045 47.01C49.7691 47.2853 50.5024 47.4003 51.2578 47.2784L51.258 47.2784C51.7068 47.2061 52.0418 47.0599 52.2886 46.8607C52.5326 46.6638 52.7167 46.394 52.8331 46.0289C52.9106 45.7848 52.9588 45.353 52.9486 44.6914L48.2592 47.5336ZM48.2592 47.5336L48.26 50.1309M48.2592 47.5336L48.26 50.1309M48.26 50.1309L48.0545 50.1313C48.0495 47.49 48.0485 44.6125 48.0514 41.4987L47.5514 41.4982C47.552 41.1447 47.7206 40.9061 48.057 40.7823C48.9268 40.4617 49.9063 40.3313 50.9956 40.391M48.26 50.1309L48.0514 41.4991C48.0516 41.4033 48.0734 41.3614 48.0867 41.3426C48.1004 41.3232 48.1347 41.2865 48.2296 41.2516L48.23 41.2515C49.0254 40.9583 49.9351 40.8336 50.968 40.8903L50.9956 40.391M50.9956 40.391L50.9682 40.8903M50.9956 40.391L50.9682 40.8903M50.9682 40.8903C51.6513 40.928 52.1342 41.1507 52.4455 41.4819C52.7567 41.8129 52.9504 42.3096 52.944 43.0002L50.9682 40.8903ZM52.7298 45.081V45.0812C52.7291 45.5015 52.6489 45.8919 52.4607 46.2282C52.2695 46.5697 51.9837 46.8249 51.6254 46.9943L52.7298 45.081ZM52.7298 45.081C52.7304 44.5886 52.7341 44.0209 52.7408 43.3777M52.7298 45.081L52.7408 43.3777M48.2592 41.9693L48.2592 41.9691C48.2592 41.8169 48.2976 41.6455 48.4128 41.4946C48.5273 41.3447 48.6812 41.2629 48.8249 41.2216L48.2592 41.9693ZM48.2592 41.9693C48.2598 43.4052 48.2598 44.8502 48.2592 46.3044V46.3046M48.2592 41.9693L48.2592 46.3046M48.2592 46.3046C48.2592 46.4067 48.285 46.5363 48.3744 46.655C48.4634 46.7731 48.5798 46.8333 48.6754 46.8617L48.8177 46.3823L48.2592 46.3046ZM52.7408 43.3777C52.7457 42.9069 52.6909 42.4158 52.4671 41.9958M52.7408 43.3777L52.2408 43.3725L52.4671 41.9958M52.4671 41.9958C52.2298 41.5505 51.8311 41.2375 51.2641 41.0902M52.4671 41.9958L51.2641 41.0902M51.2641 41.0902C50.4332 40.8734 49.5528 41.0123 48.8252 41.2215L51.2641 41.0902ZM52.944 43.0003C52.9385 43.5754 52.94 44.139 52.9486 44.6913L52.944 43.0003Z" fill="black" stroke="white"/>
<path d="M39.5283 47.1231V41.0923H39.7315V47.1231H39.5283Z" fill="black" stroke="white"/>
</g>
</mask>
<g mask="url(#mask0_673_2856)">
<path d="M0.666992 0.5H64.667V64.5H0.666992V0.5Z" fill="white"/>
</g>
<defs>
<clipPath id="clip0_673_2856">
<rect width="64" height="64" fill="white" transform="translate(0.666992 0.5)"/>
</clipPath>
</defs>
</svg>
