<svg width="101" height="51" viewBox="0 0 101 51" fill="none" xmlns="http://www.w3.org/2000/svg">
<mask id="mask0_673_2827" style="mask-type:alpha" maskUnits="userSpaceOnUse" x="0" y="0" width="101" height="51">
<g clip-path="url(#clip0_673_2827)">
<path d="M6.875 9.74097H9.73438C9.79688 9.74097 9.85156 9.79574 9.85156 9.85834V22.5344C9.85156 22.597 9.79688 22.6518 9.73438 22.6518H6.875C6.8125 22.6518 6.75781 22.597 6.75781 22.5344V9.85834C6.75781 9.79574 6.8125 9.74097 6.875 9.74097Z" fill="black"/>
<path d="M33.1797 17.2059V9.84282C33.1797 9.82717 33.1953 9.81152 33.2109 9.81152H36.125C36.1563 9.81152 36.1797 9.835 36.1797 9.8663V22.5893C36.1797 22.6284 36.1484 22.6597 36.1016 22.6597C35.3359 22.6597 34.5234 22.6597 33.6562 22.6597C33.4609 22.6597 33.3516 22.4954 33.25 22.3467C31.6328 19.9993 30.0156 17.6441 28.3984 15.2888C28.3828 15.2654 28.375 15.2654 28.375 15.2967V22.6128C28.375 22.6362 28.3594 22.6519 28.3359 22.6519H25.4453C25.3984 22.6519 25.375 22.6284 25.375 22.5815V9.88195C25.375 9.835 25.3984 9.81152 25.4453 9.81152H28C28.0313 9.81152 28.0547 9.82717 28.0781 9.85065C29.7656 12.2998 31.3672 14.6237 32.8672 16.8147C32.9687 16.9633 33.0703 17.0963 33.1719 17.2137C33.1719 17.2215 33.1797 17.2215 33.1797 17.2059Z" fill="black"/>
<path d="M87.1562 17.6675V19.7176C87.1562 19.7411 87.1719 19.7568 87.1953 19.7568H93.5156C93.5313 19.7568 93.5469 19.7724 93.5469 19.788L93.5078 22.5893C93.5078 22.6128 93.4922 22.6284 93.4609 22.6284C92.9219 22.6284 92.375 22.6675 91.8281 22.6675C89.3281 22.6675 86.8125 22.6675 84.2734 22.6675C84.2344 22.6675 84.1953 22.6362 84.1953 22.5893L84.1875 9.82717C84.1875 9.81935 84.1953 9.81935 84.1953 9.81152H93.3203C93.3281 9.81152 93.3438 9.81935 93.3438 9.835V12.6675C93.3438 12.6988 93.3203 12.7301 93.2813 12.7301H87.2422C87.1875 12.7301 87.1562 12.7614 87.1562 12.8162L87.1484 14.6629C87.1484 14.6863 87.1719 14.7098 87.1953 14.7098L92.7578 14.7176C92.7891 14.7176 92.8047 14.7333 92.8047 14.7646L92.8203 17.5658C92.8203 17.5971 92.7969 17.6206 92.7656 17.6206H87.1953C87.1719 17.6128 87.1562 17.6284 87.1562 17.6675Z" fill="black"/>
<path d="M15.1719 15.2967C15.1875 15.3749 15.2031 15.4532 15.2031 15.5314C15.2031 17.8319 15.2031 20.1871 15.2031 22.605C15.2031 22.6363 15.1797 22.6597 15.1484 22.6597H12.2813C12.2422 22.6597 12.2109 22.6285 12.2109 22.5815V9.85067C12.2109 9.81937 12.2266 9.80372 12.2578 9.80372L14.8438 9.7959C14.875 9.7959 14.9063 9.81155 14.9219 9.83502L19.9844 17.1824C19.9922 17.1903 19.9922 17.1903 19.9922 17.1824L19.9844 9.88197C19.9844 9.8272 20.0156 9.7959 20.0703 9.7959H22.9609C22.9922 9.7959 23.0156 9.81937 23.0156 9.85067C23.0156 14.0604 23.0156 18.2779 23.0156 22.4876C23.0156 22.5346 23.0078 22.5737 23 22.6128C22.9922 22.6285 22.9766 22.6441 22.9609 22.6441H20.4141C20.3516 22.6441 20.2891 22.6128 20.25 22.558C18.625 20.195 17.0313 17.8867 15.4688 15.6175C15.3828 15.5001 15.2969 15.3828 15.2109 15.2654C15.1719 15.2419 15.1641 15.2497 15.1719 15.2967Z" fill="black"/>
<path d="M56.6954 18.497L59.4376 9.96019C59.4689 9.87412 59.547 9.81152 59.6408 9.81152H62.5314C62.5626 9.81152 62.5861 9.835 62.5861 9.8663C62.5861 9.87412 62.5861 9.88195 62.5861 9.88195L58.2423 22.6128C58.2345 22.6441 58.2033 22.6597 58.172 22.6597H55.2423C55.1642 22.6597 55.0939 22.6128 55.0704 22.5345L50.7501 9.85065C50.7423 9.835 50.7501 9.81935 50.7658 9.81152H50.7736H53.8204C53.8439 9.81152 53.8673 9.82717 53.8751 9.85065C53.9064 9.96019 53.9454 10.0697 53.9767 10.1793C54.2345 10.9774 54.4923 11.7677 54.7423 12.5658C55.297 14.3029 55.797 15.8679 56.2345 17.2607C56.3439 17.6049 56.4533 17.9336 56.5626 18.2544C56.5939 18.3405 56.6095 18.4109 56.6251 18.497C56.6642 18.5517 56.6798 18.5517 56.6954 18.497Z" fill="black"/>
<path d="M69.5938 20.3201C69.5703 20.2575 69.5313 20.2262 69.4609 20.2262H65.2266C65.2031 20.2262 65.1875 20.2419 65.1797 20.2575L64.3984 22.5971C64.3828 22.6362 64.3516 22.6597 64.3125 22.6597H61.3203C61.2891 22.6597 61.2656 22.6362 61.2656 22.6049C61.2656 22.5971 61.2656 22.5893 61.2656 22.5893L65.8047 9.85065C65.8125 9.82717 65.8359 9.81152 65.8594 9.81152H68.8516C68.8828 9.81152 68.9141 9.835 68.9297 9.8663C70.2734 13.6378 71.625 17.4328 72.9844 21.2513C73.1484 21.7051 73.2891 22.1511 73.4766 22.5971C73.4844 22.6206 73.4766 22.6519 73.4531 22.6597C73.4453 22.6597 73.4375 22.6597 73.4375 22.6597H70.4453C70.3906 22.6597 70.3516 22.6284 70.3281 22.5815L69.5938 20.3201ZM66.0391 17.6206H68.7031C68.7109 17.6206 68.7266 17.6128 68.7266 17.605V17.5971L67.3984 13.5909C67.3828 13.5517 67.375 13.5517 67.3594 13.5909L66.0312 17.605C66.0312 17.6128 66.0313 17.6206 66.0391 17.6206Z" fill="black"/>
<path d="M75.9453 12.7221H72.4141C72.3828 12.7221 72.3516 12.6986 72.3516 12.6595V9.82694C72.3516 9.81912 72.3594 9.80347 72.375 9.80347H82.5703C82.6016 9.80347 82.6328 9.82694 82.6328 9.86606L82.6172 12.5891C82.6172 12.6517 82.5703 12.6986 82.5078 12.6986H82.5C82.2344 12.683 81.9531 12.683 81.6563 12.6986C80.7969 12.7456 79.9141 12.7221 79.0625 12.7064C79.0312 12.7064 79.0078 12.7299 79.0078 12.7612V22.6125C79.0078 22.6438 78.9844 22.6673 78.9531 22.6673H76.0625C76.0234 22.6673 76.0078 22.6517 76.0078 22.6047V12.7847C76.0078 12.7456 75.9844 12.7221 75.9453 12.7221Z" fill="black"/>
<path d="M17.4688 35.3826C17.4688 35.32 17.4531 35.3121 17.4219 35.3747L14.5937 41.525C14.5859 41.5328 14.5781 41.5406 14.5703 41.5406H12.8438C12.7734 41.5406 12.7031 41.5015 12.6797 41.4311C11.8594 39.6392 11.0234 37.8317 10.1875 36.0085C10.0859 35.7816 9.99219 35.5625 9.90625 35.3669C9.86719 35.2652 9.84375 35.2652 9.84375 35.3826V41.5015C9.84375 41.525 9.82031 41.5484 9.79687 41.5484H6.86719C6.83594 41.5484 6.8125 41.5328 6.8125 41.4937V28.7081C6.8125 28.6846 6.82031 28.6689 6.84375 28.6689H9.4375C9.49219 28.6689 9.53125 28.6924 9.55469 28.7394C10.8125 31.4467 12.0156 34.0758 13.1797 36.6345C13.3281 36.9553 13.4687 37.2683 13.6016 37.5657C13.625 37.6204 13.6562 37.6204 13.6797 37.5657L17.75 28.7081C17.7578 28.6846 17.7812 28.6689 17.8047 28.6689H20.3906C20.4375 28.6689 20.4609 28.6924 20.4609 28.7394V41.5093C20.4609 41.5328 20.4453 41.5484 20.4219 41.5484L17.4766 41.5406C17.4531 41.5406 17.4375 41.525 17.4375 41.5015C17.4375 39.5923 17.4375 37.6752 17.4375 35.7503C17.4531 35.6251 17.4766 35.5078 17.4688 35.3826Z" fill="black"/>
<path d="M39.6328 38.6063H45.3594C45.375 38.6063 45.3906 38.622 45.3906 38.6376V41.5015C45.3906 41.5171 45.375 41.5328 45.3594 41.5328H36.6328C36.6172 41.5328 36.6016 41.5171 36.6016 41.5015V28.7002C36.6016 28.6846 36.6172 28.6689 36.6328 28.6689H39.5625C39.5781 28.6689 39.5937 28.6846 39.5937 28.7002V38.575C39.6016 38.5907 39.6172 38.6063 39.6328 38.6063Z" fill="black"/>
<path d="M46.7734 28.7081C46.7734 28.6768 46.7969 28.6533 46.8281 28.6533L51.1094 28.669C54.6562 28.6846 57.5156 31.5172 57.5078 35.007V35.2496C57.4922 38.7394 54.6094 41.5563 51.0703 41.5406L46.7891 41.525C46.7578 41.525 46.7344 41.5015 46.7344 41.4702L46.7734 28.7081ZM49.7266 31.6893L49.7031 38.5047C49.7031 38.5673 49.75 38.6142 49.8125 38.622H51.0469C52.9531 38.6298 54.5078 37.0806 54.5156 35.1713V35.0618C54.5234 33.1525 52.9766 31.5954 51.0703 31.5876L49.8359 31.5798C49.7813 31.5798 49.7266 31.6267 49.7266 31.6893Z" fill="black"/>
<path d="M77.9765 37.3309C77.9843 37.3466 77.9921 37.3466 78.0078 37.3466C78.0156 37.3466 78.0234 37.3388 78.0234 37.3309L80.7812 28.7472C80.7968 28.7003 80.8437 28.6611 80.8984 28.6611H83.8437C83.8749 28.6611 83.8906 28.6768 83.8906 28.7003C83.8906 28.7942 83.8749 28.888 83.8437 28.9741C83.7343 29.2636 83.6328 29.5453 83.539 29.827C82.2187 33.7237 80.8906 37.6048 79.5703 41.4859C79.5624 41.5172 79.539 41.5328 79.5078 41.5328H76.4999C76.4765 41.5328 76.4531 41.5172 76.4453 41.4937L72.1093 28.7785C72.0937 28.7316 72.1171 28.6846 72.164 28.669C72.1718 28.669 72.1796 28.6611 72.1874 28.6611H75.1406C75.164 28.6611 75.1874 28.6768 75.1953 28.7003C75.2578 28.8646 75.3515 29.1228 75.4531 29.4671C76.1171 31.5719 76.8437 33.8333 77.6406 36.2668C77.7578 36.6189 77.8515 36.9788 77.9765 37.3309Z" fill="black"/>
<path d="M90.5 39.0915H86.2109C86.1797 39.0915 86.1484 39.115 86.1406 39.1463L85.3516 41.525C85.3516 41.5328 85.3438 41.5406 85.3359 41.5406H82.2578C82.2422 41.5406 82.2344 41.5328 82.2344 41.5171V41.5093L86.8047 28.6924C86.8125 28.6768 86.8281 28.6689 86.8438 28.6689H89.8594C89.8984 28.6689 89.9375 28.7002 89.9453 28.7394C89.9688 28.8489 90 28.9506 90.0391 29.0602C91.5469 33.2542 93.0234 37.4013 94.4766 41.4937C94.4844 41.5093 94.4766 41.5328 94.4531 41.5406C94.4453 41.5406 94.4453 41.5406 94.4375 41.5406H91.4219C91.375 41.5406 91.3516 41.5171 91.3359 41.478L90.5703 39.1463C90.5625 39.115 90.5313 39.0993 90.5 39.0915ZM87.0078 36.4467C87 36.4624 87.0078 36.478 87.0234 36.478H87.0313L89.6797 36.4702C89.6953 36.4702 89.7031 36.4545 89.7031 36.4467V36.4389L88.375 32.4718C88.3672 32.4561 88.3516 32.4483 88.3438 32.4561C88.3359 32.4561 88.3281 32.4639 88.3281 32.4718L87.0078 36.4467Z" fill="black"/>
<path fill-rule="evenodd" clip-rule="evenodd" d="M72.3125 35.1008C72.3125 38.8864 69.2484 41.9553 65.4687 41.9553C61.689 41.9553 58.625 38.8864 58.625 35.1008C58.625 31.3152 61.689 28.2463 65.4687 28.2463C69.2484 28.2463 72.3125 31.3152 72.3125 35.1008ZM69.1638 35.1008C69.1638 37.1448 67.5093 38.8019 65.4685 38.8019C63.4276 38.8019 61.7732 37.1448 61.7732 35.1008C61.7732 33.0567 63.4276 31.3997 65.4685 31.3997C67.5093 31.3997 69.1638 33.0567 69.1638 35.1008Z" fill="#ED22EC"/>
<path fill-rule="evenodd" clip-rule="evenodd" d="M51.1016 16.2983C51.1016 20.0839 48.0375 23.1528 44.2578 23.1528C40.4781 23.1528 37.4141 20.0839 37.4141 16.2983C37.4141 12.5127 40.4781 9.44385 44.2578 9.44385C48.0375 9.44385 51.1016 12.5127 51.1016 16.2983ZM41.5237 13.5675H46.9924V19.0448H41.5237V13.5675Z" fill="#ED7C30"/>
<path fill-rule="evenodd" clip-rule="evenodd" d="M35.375 35.4216C35.375 39.2072 32.3109 42.2761 28.5312 42.2761C24.7515 42.2761 21.6875 39.2072 21.6875 35.4216C21.6875 31.636 24.7515 28.5671 28.5312 28.5671C32.3109 28.5671 35.375 31.636 35.375 35.4216ZM24.8355 37.9256L28.5308 31.5094L32.2262 37.9256H24.8355Z" fill="#3BF33D"/>
</g>
</mask>
<g mask="url(#mask0_673_2827)">
<rect x="0.5" y="0.5" width="100" height="50" fill="white"/>
</g>
<defs>
<clipPath id="clip0_673_2827">
<rect width="100" height="50" fill="white" transform="translate(0.5 0.5)"/>
</clipPath>
</defs>
</svg>
