<svg width="25" height="24" viewBox="0 0 25 24" fill="none" xmlns="http://www.w3.org/2000/svg">
<path d="M3.95602 7.23996L4.59914 7.62583L3.95602 7.23996ZM5.56783 4.55361L6.21095 4.93949L5.56783 4.55361ZM19.4322 4.55361L18.789 4.93949V4.93949L19.4322 4.55361ZM21.044 7.23996L20.4009 7.62583L21.044 7.23996ZM17.976 3.09479L17.7479 3.80925L17.7479 3.80925L17.976 3.09479ZM18.6883 3.49806L19.1835 2.93483L19.1835 2.93483L18.6883 3.49806ZM6.31171 3.49806L6.80696 4.06129L6.80696 4.06129L6.31171 3.49806ZM7.02395 3.09479L6.79579 2.38034V2.38034L7.02395 3.09479ZM21.4738 8.23113L20.7336 8.3522V8.3522L21.4738 8.23113ZM21.3586 7.8153L22.0556 7.5383L22.0556 7.53829L21.3586 7.8153ZM20.408 20.782L20.0675 20.1138L20.408 20.782ZM21.282 19.908L20.6138 19.5675L21.282 19.908ZM3.71799 19.908L3.04973 20.2485L3.04973 20.2485L3.71799 19.908ZM4.59202 20.782L4.93251 20.1138H4.93251L4.59202 20.782ZM3.52623 8.23113L2.78606 8.11007L3.52623 8.23113ZM3.64141 7.8153L2.94444 7.5383H2.94444L3.64141 7.8153ZM4.5 7.25C4.08579 7.25 3.75 7.58579 3.75 8C3.75 8.41421 4.08579 8.75 4.5 8.75V7.25ZM20.5 8.75C20.9142 8.75 21.25 8.41421 21.25 8C21.25 7.58579 20.9142 7.25 20.5 7.25V8.75ZM10.5 11.25C10.0858 11.25 9.75 11.5858 9.75 12C9.75 12.4142 10.0858 12.75 10.5 12.75V11.25ZM14.5 12.75C14.9142 12.75 15.25 12.4142 15.25 12C15.25 11.5858 14.9142 11.25 14.5 11.25V12.75ZM11.75 8C11.75 8.41421 12.0858 8.75 12.5 8.75C12.9142 8.75 13.25 8.41421 13.25 8H11.75ZM13.25 3C13.25 2.58579 12.9142 2.25 12.5 2.25C12.0858 2.25 11.75 2.58579 11.75 3H13.25ZM2.75 8.88635V17.8H4.25V8.88635H2.75ZM6.7 21.75H18.3V20.25H6.7V21.75ZM22.25 17.8V8.88635H20.75V17.8H22.25ZM4.59914 7.62583L6.21095 4.93949L4.92471 4.16774L3.3129 6.85409L4.59914 7.62583ZM8.31181 3.75H16.6882V2.25H8.31181V3.75ZM18.789 4.93949L20.4009 7.62583L21.6871 6.85409L20.0753 4.16774L18.789 4.93949ZM16.6882 3.75C17.3984 3.75 17.5888 3.75843 17.7479 3.80925L18.2042 2.38034C17.7697 2.24157 17.2993 2.25 16.6882 2.25V3.75ZM20.0753 4.16774C19.7609 3.64371 19.5261 3.23604 19.1835 2.93483L18.193 4.06128C18.3185 4.17159 18.4236 4.33046 18.789 4.93949L20.0753 4.16774ZM17.7479 3.80925C17.9121 3.86167 18.0636 3.94748 18.193 4.06129L19.1835 2.93483C18.8988 2.68446 18.5654 2.49568 18.2042 2.38034L17.7479 3.80925ZM6.21095 4.93949C6.57637 4.33046 6.68151 4.17159 6.80696 4.06129L5.81646 2.93483C5.47391 3.23604 5.23913 3.64371 4.92471 4.16774L6.21095 4.93949ZM8.31181 2.25C7.70068 2.25 7.23032 2.24157 6.79579 2.38034L7.25211 3.80925C7.41125 3.75843 7.60157 3.75 8.31181 3.75V2.25ZM6.80696 4.06129C6.93639 3.94748 7.08794 3.86167 7.25211 3.80925L6.79579 2.38034C6.43462 2.49568 6.10119 2.68446 5.81646 2.93483L6.80696 4.06129ZM22.25 8.88635C22.25 8.58001 22.2523 8.34435 22.2139 8.11007L20.7336 8.3522C20.7477 8.43862 20.75 8.53287 20.75 8.88635H22.25ZM20.4009 7.62583C20.5827 7.92893 20.6293 8.01092 20.6616 8.0923L22.0556 7.53829C21.9679 7.31769 21.8447 7.11678 21.6871 6.85409L20.4009 7.62583ZM22.2139 8.11007C22.1819 7.91433 22.1288 7.72262 22.0556 7.5383L20.6616 8.09229C20.6949 8.17608 20.7191 8.26322 20.7336 8.3522L22.2139 8.11007ZM18.3 21.75C18.8477 21.75 19.3035 21.7506 19.6747 21.7203C20.0546 21.6892 20.4112 21.6221 20.7485 21.4503L20.0675 20.1138C19.9769 20.1599 19.8396 20.2018 19.5525 20.2252C19.2566 20.2494 18.8724 20.25 18.3 20.25V21.75ZM20.75 17.8C20.75 18.3724 20.7494 18.7566 20.7252 19.0525C20.7018 19.3396 20.6599 19.4769 20.6138 19.5675L21.9503 20.2485C22.1221 19.9112 22.1892 19.5546 22.2203 19.1747C22.2506 18.8035 22.25 18.3477 22.25 17.8H20.75ZM20.7485 21.4503C21.2659 21.1866 21.6866 20.7659 21.9503 20.2485L20.6138 19.5675C20.4939 19.8027 20.3027 19.9939 20.0675 20.1138L20.7485 21.4503ZM2.75 17.8C2.75 18.3477 2.74942 18.8035 2.77974 19.1747C2.81078 19.5546 2.87789 19.9112 3.04973 20.2485L4.38624 19.5675C4.3401 19.4769 4.29822 19.3396 4.27476 19.0525C4.25058 18.7566 4.25 18.3724 4.25 17.8H2.75ZM6.7 20.25C6.12757 20.25 5.74336 20.2494 5.44748 20.2252C5.16035 20.2018 5.02307 20.1599 4.93251 20.1138L4.25153 21.4503C4.58879 21.6221 4.94545 21.6892 5.32533 21.7203C5.69646 21.7506 6.15232 21.75 6.7 21.75V20.25ZM3.04973 20.2485C3.31338 20.7659 3.73408 21.1866 4.25153 21.4503L4.93251 20.1138C4.69731 19.9939 4.50608 19.8027 4.38624 19.5675L3.04973 20.2485ZM4.25 8.88635C4.25 8.53288 4.25226 8.43862 4.26639 8.3522L2.78606 8.11007C2.74774 8.34435 2.75 8.58001 2.75 8.88635H4.25ZM3.3129 6.85409C3.15529 7.11678 3.03211 7.31769 2.94444 7.5383L4.33838 8.0923C4.37072 8.01092 4.41728 7.92894 4.59914 7.62583L3.3129 6.85409ZM4.26639 8.3522C4.28095 8.26322 4.30508 8.17608 4.33838 8.0923L2.94444 7.5383C2.87118 7.72262 2.81808 7.91433 2.78606 8.11007L4.26639 8.3522ZM4.5 8.75H20.5V7.25H4.5V8.75ZM10.5 12.75H14.5V11.25H10.5V12.75ZM13.25 8V3H11.75V8H13.25Z" fill="black"/>
</svg>
