<svg width="24" height="24" viewBox="0 0 24 24" fill="none" xmlns="http://www.w3.org/2000/svg">
<path d="M11 0.25C10.5858 0.25 10.25 0.585786 10.25 1C10.25 1.41421 10.5858 1.75 11 1.75V0.25ZM13 1.75C13.4142 1.75 13.75 1.41421 13.75 1C13.75 0.585786 13.4142 0.25 13 0.25V1.75ZM23.75 11C23.75 10.5858 23.4142 10.25 23 10.25C22.5858 10.25 22.25 10.5858 22.25 11H23.75ZM22.25 13C22.25 13.4142 22.5858 13.75 23 13.75C23.4142 13.75 23.75 13.4142 23.75 13H22.25ZM11 22.25C10.5858 22.25 10.25 22.5858 10.25 23C10.25 23.4142 10.5858 23.75 11 23.75V22.25ZM13 23.75C13.4142 23.75 13.75 23.4142 13.75 23C13.75 22.5858 13.4142 22.25 13 22.25V23.75ZM1.75 11C1.75 10.5858 1.41421 10.25 1 10.25C0.585787 10.25 0.25 10.5858 0.25 11H1.75ZM0.25 13C0.25 13.4142 0.585786 13.75 1 13.75C1.41421 13.75 1.75 13.4142 1.75 13H0.25ZM3.72974 22.4552L4.07024 21.787H4.07024L3.72974 22.4552ZM1.54466 20.2701L2.21292 19.9296H2.21292L1.54466 20.2701ZM22.4547 20.2701L21.7865 19.9296V19.9296L22.4547 20.2701ZM20.2696 22.4552L19.9292 21.787H19.9292L20.2696 22.4552ZM20.2696 1.54515L19.9292 2.21341V2.21341L20.2696 1.54515ZM22.4547 3.73023L21.7865 4.07073V4.07073L22.4547 3.73023ZM3.72974 1.54515L4.07024 2.21341L3.72974 1.54515ZM1.54466 3.73023L2.21292 4.07073V4.07073L1.54466 3.73023ZM7.01416 1.76109C7.4283 1.75317 7.7576 1.41101 7.74967 0.996876C7.74175 0.582739 7.39959 0.25344 6.98546 0.261368L7.01416 1.76109ZM0.26088 6.98584C0.252951 7.39998 0.582248 7.74213 0.996386 7.75006C1.41052 7.75799 1.75268 7.42869 1.7606 7.01455L0.26088 6.98584ZM1.7606 16.9858C1.75268 16.5717 1.41052 16.2424 0.996386 16.2503C0.582248 16.2582 0.252951 16.6004 0.26088 17.0145L1.7606 16.9858ZM6.98546 23.739C7.39959 23.7469 7.74175 23.4176 7.74967 23.0035C7.7576 22.5894 7.4283 22.2472 7.01417 22.2393L6.98546 23.739ZM16.9852 22.2393C16.5711 22.2472 16.2418 22.5894 16.2497 23.0035C16.2577 23.4176 16.5998 23.7469 17.0139 23.739L16.9852 22.2393ZM23.7385 17.0145C23.7464 16.6004 23.4171 16.2582 23.003 16.2503C22.5889 16.2424 22.2467 16.5717 22.2388 16.9858L23.7385 17.0145ZM22.2388 7.01455C22.2467 7.42869 22.5889 7.75799 23.003 7.75006C23.4171 7.74213 23.7464 7.39998 23.7385 6.98584L22.2388 7.01455ZM17.0139 0.261368C16.5998 0.25344 16.2577 0.582738 16.2497 0.996876C16.2418 1.41101 16.5711 1.75317 16.9852 1.76109L17.0139 0.261368ZM6 6.25C5.58579 6.25 5.25 6.58579 5.25 7C5.25 7.41421 5.58579 7.75 6 7.75V6.25ZM7.63768 8.11444L6.89219 8.19657L7.63768 8.11444ZM8.14956 12.7606L7.40407 12.8427L8.14956 12.7606ZM16.0892 12.9339L16.8155 13.1209V13.1209L16.0892 12.9339ZM16.9602 9.55194L16.2339 9.36488V9.36488L16.9602 9.55194ZM8.27234 7.24306C7.85813 7.24306 7.52234 7.57884 7.52234 7.99306C7.52234 8.40727 7.85813 8.74306 8.27234 8.74306V7.24306ZM8.28797 15.3906C7.87375 15.3906 7.53797 15.7264 7.53797 16.1406C7.53797 16.5548 7.87375 16.8906 8.28797 16.8906V15.3906ZM8.76137 16.8906C9.17558 16.8906 9.51137 16.5548 9.51137 16.1406C9.51137 15.7264 9.17558 15.3906 8.76137 15.3906V16.8906ZM8.28797 15.8593C7.87375 15.8593 7.53797 16.1951 7.53797 16.6093C7.53797 17.0236 7.87375 17.3593 8.28797 17.3593V15.8593ZM8.76137 17.3593C9.17558 17.3593 9.51137 17.0236 9.51137 16.6093C9.51137 16.1951 9.17558 15.8593 8.76137 15.8593V17.3593ZM15.2312 15.3906C14.817 15.3906 14.4812 15.7264 14.4812 16.1406C14.4812 16.5548 14.817 16.8906 15.2312 16.8906V15.3906ZM15.7046 16.8906C16.1188 16.8906 16.4546 16.5548 16.4546 16.1406C16.4546 15.7264 16.1188 15.3906 15.7046 15.3906V16.8906ZM15.2312 15.8593C14.817 15.8593 14.4812 16.1951 14.4812 16.6093C14.4812 17.0236 14.817 17.3593 15.2312 17.3593V15.8593ZM15.7046 17.3593C16.1188 17.3593 16.4546 17.0236 16.4546 16.6093C16.4546 16.1951 16.1188 15.8593 15.7046 15.8593V17.3593ZM11 1.75H13V0.25H11V1.75ZM22.25 11V13H23.75V11H22.25ZM11 23.75H13V22.25H11V23.75ZM0.25 11L0.25 13H1.75L1.75 11H0.25ZM4.07024 21.787C3.27055 21.3795 2.62038 20.7293 2.21292 19.9296L0.876408 20.6106C1.42768 21.6926 2.30732 22.5722 3.38925 23.1235L4.07024 21.787ZM21.7865 19.9296C21.379 20.7293 20.7288 21.3795 19.9292 21.787L20.6101 23.1235C21.6921 22.5722 22.5717 21.6926 23.123 20.6106L21.7865 19.9296ZM19.9292 2.21341C20.7288 2.62087 21.379 3.27104 21.7865 4.07073L23.123 3.38974C22.5717 2.30781 21.6921 1.42817 20.6101 0.876898L19.9292 2.21341ZM3.38925 0.876898C2.30732 1.42817 1.42768 2.30781 0.876408 3.38974L2.21292 4.07073C2.62038 3.27104 3.27055 2.62087 4.07024 2.21341L3.38925 0.876898ZM6.98546 0.261368C5.44913 0.290777 4.33677 0.394113 3.38925 0.876898L4.07024 2.21341C4.67861 1.90342 5.47192 1.79062 7.01416 1.76109L6.98546 0.261368ZM1.7606 7.01455C1.79013 5.47237 1.90294 4.67909 2.21292 4.07073L0.876408 3.38974C0.393633 4.33724 0.290292 5.44957 0.26088 6.98584L1.7606 7.01455ZM0.26088 17.0145C0.290292 18.5508 0.393633 19.6631 0.876408 20.6106L2.21292 19.9296C1.90294 19.3213 1.79013 18.528 1.7606 16.9858L0.26088 17.0145ZM7.01417 22.2393C5.47192 22.2098 4.67861 22.0969 4.07024 21.787L3.38925 23.1235C4.33677 23.6063 5.44913 23.7096 6.98546 23.739L7.01417 22.2393ZM17.0139 23.739C18.5503 23.7096 19.6626 23.6063 20.6101 23.1235L19.9292 21.787C19.3208 22.0969 18.5275 22.2098 16.9852 22.2393L17.0139 23.739ZM22.2388 16.9858C22.2093 18.528 22.0964 19.3213 21.7865 19.9296L23.123 20.6106C23.6058 19.6631 23.7091 18.5508 23.7385 17.0145L22.2388 16.9858ZM23.7385 6.98584C23.7091 5.44957 23.6058 4.33724 23.123 3.38974L21.7865 4.07073C22.0964 4.67909 22.2093 5.47237 22.2388 7.01455L23.7385 6.98584ZM16.9852 1.76109C18.5275 1.79062 19.3208 1.90343 19.9292 2.21341L20.6101 0.876898C19.6626 0.394114 18.5503 0.290778 17.0139 0.261368L16.9852 1.76109ZM6 7.75H6.38271V6.25H6V7.75ZM6.89219 8.19657L7.40407 12.8427L8.89505 12.6784L8.38316 8.03231L6.89219 8.19657ZM9.40452 14.625H14.8659V13.125H9.40452V14.625ZM16.8155 13.1209L17.6865 9.739L16.2339 9.36488L15.3629 12.7468L16.8155 13.1209ZM15.7369 7.24306H8.27234V8.74306H15.7369V7.24306ZM17.6865 9.739C18.0147 8.46458 17.041 7.24306 15.7369 7.24306V8.74306C16.0804 8.74306 16.3128 9.0586 16.2339 9.36488L17.6865 9.739ZM14.8659 14.625C15.7806 14.625 16.5864 14.0104 16.8155 13.1209L15.3629 12.7468C15.3068 12.9647 15.1054 13.125 14.8659 13.125V14.625ZM7.40407 12.8427C7.51645 13.8628 8.38376 14.625 9.40452 14.625V13.125C9.13684 13.125 8.92239 12.9266 8.89505 12.6784L7.40407 12.8427ZM6.38271 7.75C6.65039 7.75 6.86484 7.94839 6.89219 8.19657L8.38316 8.03231C8.27078 7.01223 7.40348 6.25 6.38271 6.25V7.75ZM8.40603 16.375C8.40603 16.299 8.46622 16.25 8.52482 16.25V17.75C9.28064 17.75 9.90603 17.1414 9.90603 16.375H8.40603ZM8.52482 16.25C8.58343 16.25 8.64362 16.299 8.64362 16.375H7.14362C7.14362 17.1414 7.76901 17.75 8.52482 17.75V16.25ZM8.64362 16.375C8.64362 16.451 8.58343 16.5 8.52482 16.5V15C7.76901 15 7.14362 15.6086 7.14362 16.375H8.64362ZM8.52482 16.5C8.46622 16.5 8.40603 16.451 8.40603 16.375H9.90603C9.90603 15.6086 9.28064 15 8.52482 15V16.5ZM8.28797 16.8906H8.76137V15.3906H8.28797V16.8906ZM8.28797 17.3593H8.76137V15.8593H8.28797V17.3593ZM15.3493 16.375C15.3493 16.299 15.4095 16.25 15.4681 16.25V17.75C16.2239 17.75 16.8493 17.1414 16.8493 16.375H15.3493ZM15.4681 16.25C15.5267 16.25 15.5869 16.299 15.5869 16.375H14.0869C14.0869 17.1414 14.7123 17.75 15.4681 17.75V16.25ZM15.5869 16.375C15.5869 16.451 15.5267 16.5 15.4681 16.5V15C14.7123 15 14.0869 15.6086 14.0869 16.375H15.5869ZM15.4681 16.5C15.4095 16.5 15.3493 16.451 15.3493 16.375H16.8493C16.8493 15.6086 16.2239 15 15.4681 15V16.5ZM15.2312 16.8906H15.7046V15.3906H15.2312V16.8906ZM15.2312 17.3593H15.7046V15.8593H15.2312V17.3593Z" fill="black"/>
</svg>
