<svg width="24" height="24" viewBox="0 0 24 24" fill="none" xmlns="http://www.w3.org/2000/svg">
<path d="M3.45602 7.23996L4.31352 7.75446L3.45602 7.23996ZM5.06783 4.55361L5.92532 5.06811V5.06811L5.06783 4.55361ZM18.9322 4.55361L18.0747 5.06811L18.0747 5.06811L18.9322 4.55361ZM20.544 7.23996L19.6865 7.75446L20.544 7.23996ZM17.476 3.09479L17.1718 4.0474L17.1718 4.0474L17.476 3.09479ZM18.1883 3.49806L18.8486 2.74708L18.8486 2.74708L18.1883 3.49806ZM5.81171 3.49806L6.47205 4.24903V4.24903L5.81171 3.49806ZM6.52395 3.09479L6.21974 2.14219L6.21974 2.14219L6.52395 3.09479ZM20.9738 8.23113L19.9869 8.39255L19.9869 8.39256L20.9738 8.23113ZM20.8586 7.8153L21.7879 7.44597L21.7879 7.44596L20.8586 7.8153ZM19.908 20.782L19.454 19.891H19.454L19.908 20.782ZM20.782 19.908L19.891 19.454V19.454L20.782 19.908ZM3.21799 19.908L2.32698 20.362H2.32698L3.21799 19.908ZM4.09202 20.782L4.54601 19.891L4.54601 19.891L4.09202 20.782ZM3.02623 8.23113L2.03934 8.06972L3.02623 8.23113ZM3.14141 7.8153L2.21211 7.44596H2.21211L3.14141 7.8153ZM4 7C3.44772 7 3 7.44772 3 8C3 8.55228 3.44772 9 4 9V7ZM20 9C20.5523 9 21 8.55228 21 8C21 7.44772 20.5523 7 20 7V9ZM10 11C9.44772 11 9 11.4477 9 12C9 12.5523 9.44772 13 10 13V11ZM14 13C14.5523 13 15 12.5523 15 12C15 11.4477 14.5523 11 14 11V13ZM11 8C11 8.55228 11.4477 9 12 9C12.5523 9 13 8.55228 13 8H11ZM13 3C13 2.44772 12.5523 2 12 2C11.4477 2 11 2.44772 11 3H13ZM2 8.88635V17.8H4V8.88635H2ZM6.2 22H17.8V20H6.2V22ZM22 17.8V8.88635H20V17.8H22ZM4.31352 7.75446L5.92532 5.06811L4.21034 4.03912L2.59853 6.72547L4.31352 7.75446ZM7.81181 4H16.1882V2H7.81181V4ZM18.0747 5.06811L19.6865 7.75446L21.4015 6.72547L19.7897 4.03912L18.0747 5.06811ZM16.1882 4C16.915 4 17.0586 4.01124 17.1718 4.0474L17.7803 2.14219C17.2998 1.98876 16.7828 2 16.1882 2V4ZM19.7897 4.03912C19.4837 3.52925 19.2274 3.08011 18.8486 2.74708L17.528 4.24903C17.6172 4.32752 17.7008 4.44492 18.0747 5.06811L19.7897 4.03912ZM17.1718 4.0474C17.3032 4.08934 17.4244 4.15799 17.528 4.24903L18.8486 2.74708C18.538 2.47396 18.1743 2.26802 17.7803 2.14219L17.1718 4.0474ZM5.92532 5.06811C6.29924 4.44492 6.38278 4.32752 6.47205 4.24903L5.15138 2.74708C4.77264 3.08011 4.51626 3.52925 4.21034 4.03912L5.92532 5.06811ZM7.81181 2C7.2172 2 6.70017 1.98876 6.21974 2.14219L6.82817 4.0474C6.9414 4.01124 7.08505 4 7.81181 4V2ZM6.47205 4.24903C6.57558 4.15799 6.69683 4.08934 6.82817 4.0474L6.21974 2.14219C5.82573 2.26802 5.46199 2.47396 5.15138 2.74708L6.47205 4.24903ZM22 8.88635C22 8.58786 22.003 8.32864 21.9607 8.06971L19.9869 8.39256C19.997 8.45433 20 8.52502 20 8.88635H22ZM19.6865 7.75446C19.8724 8.06429 19.9062 8.12646 19.9293 8.18464L21.7879 7.44596C21.691 7.20215 21.555 6.98142 21.4015 6.72547L19.6865 7.75446ZM21.9607 8.06972C21.9257 7.85618 21.8678 7.64705 21.7879 7.44597L19.9293 8.18462C19.9559 8.25166 19.9752 8.32137 19.9869 8.39255L21.9607 8.06972ZM17.8 22C18.3436 22 18.8114 22.0008 19.195 21.9694C19.5904 21.9371 19.9836 21.8658 20.362 21.673L19.454 19.891C19.4045 19.9162 19.3038 19.9539 19.0322 19.9761C18.7488 19.9992 18.3766 20 17.8 20V22ZM20 17.8C20 18.3766 19.9992 18.7488 19.9761 19.0322C19.9539 19.3038 19.9162 19.4045 19.891 19.454L21.673 20.362C21.8658 19.9836 21.9371 19.5904 21.9694 19.195C22.0008 18.8114 22 18.3436 22 17.8H20ZM20.362 21.673C20.9265 21.3854 21.3854 20.9265 21.673 20.362L19.891 19.454C19.7951 19.6422 19.6422 19.7951 19.454 19.891L20.362 21.673ZM2 17.8C2 18.3436 1.99922 18.8114 2.03057 19.195C2.06287 19.5904 2.13419 19.9836 2.32698 20.362L4.10899 19.454C4.0838 19.4045 4.04612 19.3038 4.02393 19.0322C4.00078 18.7488 4 18.3766 4 17.8H2ZM6.2 20C5.62345 20 5.25117 19.9992 4.96784 19.9761C4.69617 19.9539 4.59545 19.9162 4.54601 19.891L3.63803 21.673C4.01641 21.8658 4.40963 21.9371 4.80497 21.9694C5.18864 22.0008 5.65645 22 6.2 22V20ZM2.32698 20.362C2.6146 20.9265 3.07354 21.3854 3.63803 21.673L4.54601 19.891C4.35785 19.7951 4.20487 19.6422 4.10899 19.454L2.32698 20.362ZM4 8.88635C4 8.52502 4.00301 8.45433 4.01311 8.39255L2.03934 8.06972C1.99699 8.32864 2 8.58786 2 8.88635H4ZM2.59853 6.72547C2.44496 6.98142 2.30901 7.20215 2.21211 7.44596L4.0707 8.18463C4.09382 8.12646 4.12761 8.06429 4.31352 7.75446L2.59853 6.72547ZM4.01311 8.39255C4.02476 8.32137 4.04407 8.25166 4.0707 8.18463L2.21211 7.44596C2.1322 7.64704 2.07427 7.85618 2.03934 8.06972L4.01311 8.39255ZM4 9H20V7H4V9ZM10 13H14V11H10V13ZM13 8V3H11V8H13Z" fill="black"/>
</svg>
