<svg width="24" height="24" viewBox="0 0 24 24" fill="none" xmlns="http://www.w3.org/2000/svg">
<path d="M11 0C10.4477 0 10 0.447715 10 1C10 1.55228 10.4477 2 11 2V0ZM13 2C13.5523 2 14 1.55228 14 1C14 0.447715 13.5523 0 13 0V2ZM24 11C24 10.4477 23.5523 10 23 10C22.4477 10 22 10.4477 22 11H24ZM22 13C22 13.5523 22.4477 14 23 14C23.5523 14 24 13.5523 24 13H22ZM11 22C10.4477 22 10 22.4477 10 23C10 23.5523 10.4477 24 11 24V22ZM13 24C13.5523 24 14 23.5523 14 23C14 22.4477 13.5523 22 13 22V24ZM2 11C2 10.4477 1.55228 10 1 10C0.447715 10 1.19209e-07 10.4477 5.96046e-08 11H2ZM0 13C0 13.5523 0.447715 14 1 14C1.55228 14 2 13.5523 2 13H0ZM3.72974 22.4552L4.18373 21.5642H4.18373L3.72974 22.4552ZM1.54466 20.2701L2.43567 19.8161H2.43567L1.54466 20.2701ZM22.4547 20.2701L21.5637 19.8161V19.8161L22.4547 20.2701ZM20.2696 22.4552L19.8157 21.5642H19.8157L20.2696 22.4552ZM20.2696 1.54515L19.8157 2.43616V2.43616L20.2696 1.54515ZM22.4547 3.73023L21.5637 4.18422V4.18422L22.4547 3.73023ZM3.72974 1.54515L4.18373 2.43616L3.72974 1.54515ZM1.54466 3.73023L2.43567 4.18422L1.54466 3.73023ZM7.01895 2.01105C7.57113 2.00048 8.0102 1.54428 7.99963 0.992092C7.98906 0.439908 7.53286 0.000843465 6.98067 0.0114136L7.01895 2.01105ZM0.0109255 6.98106C0.000353932 7.53324 0.439417 7.98944 0.991601 8.00002C1.54378 8.01059 1.99999 7.57152 2.01056 7.01934L0.0109255 6.98106ZM2.01056 16.981C1.99999 16.4288 1.54378 15.9898 0.991601 16.0004C0.439417 16.0109 0.000353932 16.4671 0.0109255 17.0193L2.01056 16.981ZM6.98067 23.989C7.53285 23.9995 7.98906 23.5605 7.99963 23.0083C8.0102 22.4561 7.57113 21.9999 7.01895 21.9893L6.98067 23.989ZM16.9805 21.9893C16.4283 21.9999 15.9892 22.4561 15.9998 23.0083C16.0103 23.5605 16.4665 23.9995 17.0187 23.989L16.9805 21.9893ZM23.9885 17.0193C23.999 16.4671 23.56 16.0109 23.0078 16.0004C22.4556 15.9898 21.9994 16.4288 21.9888 16.981L23.9885 17.0193ZM21.9888 7.01934C21.9994 7.57152 22.4556 8.01059 23.0078 8.00002C23.56 7.98944 23.999 7.53324 23.9885 6.98106L21.9888 7.01934ZM17.0187 0.0114136C16.4665 0.000843227 16.0103 0.439907 15.9998 0.992091C15.9892 1.54427 16.4283 2.00048 16.9805 2.01105L17.0187 0.0114136ZM6 6C5.44772 6 5 6.44772 5 7C5 7.55228 5.44772 8 6 8V6ZM7.63768 8.11444L6.64369 8.22395L7.63768 8.11444ZM8.14956 12.7606L7.15557 12.8701L8.14956 12.7606ZM16.0892 12.9339L17.0576 13.1833L16.0892 12.9339ZM16.9602 9.55194L15.9918 9.30253L16.9602 9.55194ZM8.27234 6.99306C7.72006 6.99306 7.27234 7.44077 7.27234 7.99306C7.27234 8.54534 7.72006 8.99306 8.27234 8.99306V6.99306ZM8.28797 15.1406C7.73568 15.1406 7.28797 15.5883 7.28797 16.1406C7.28797 16.6929 7.73568 17.1406 8.28797 17.1406V15.1406ZM8.76137 17.1406C9.31365 17.1406 9.76137 16.6929 9.76137 16.1406C9.76137 15.5883 9.31365 15.1406 8.76137 15.1406V17.1406ZM8.28797 15.6093C7.73568 15.6093 7.28797 16.0571 7.28797 16.6093C7.28797 17.1616 7.73568 17.6093 8.28797 17.6093V15.6093ZM8.76137 17.6093C9.31365 17.6093 9.76137 17.1616 9.76137 16.6093C9.76137 16.0571 9.31365 15.6093 8.76137 15.6093V17.6093ZM15.2312 15.1406C14.6789 15.1406 14.2312 15.5883 14.2312 16.1406C14.2312 16.6929 14.6789 17.1406 15.2312 17.1406V15.1406ZM15.7046 17.1406C16.2569 17.1406 16.7046 16.6929 16.7046 16.1406C16.7046 15.5883 16.2569 15.1406 15.7046 15.1406V17.1406ZM15.2312 15.6093C14.6789 15.6093 14.2312 16.0571 14.2312 16.6093C14.2312 17.1616 14.6789 17.6093 15.2312 17.6093V15.6093ZM15.7046 17.6093C16.2569 17.6093 16.7046 17.1616 16.7046 16.6093C16.7046 16.0571 16.2569 15.6093 15.7046 15.6093V17.6093ZM11 2H13V0H11V2ZM22 11V13H24V11H22ZM11 24H13V22H11V24ZM5.96046e-08 11L0 13H2L2 11H5.96046e-08ZM4.18373 21.5642C3.43108 21.1807 2.81916 20.5688 2.43567 19.8161L0.653656 20.7241C1.2289 21.8531 2.14678 22.771 3.27575 23.3462L4.18373 21.5642ZM21.5637 19.8161C21.1802 20.5688 20.5683 21.1807 19.8157 21.5642L20.7236 23.3462C21.8526 22.771 22.7705 21.8531 23.3457 20.7241L21.5637 19.8161ZM19.8157 2.43616C20.5683 2.81965 21.1802 3.43157 21.5637 4.18422L23.3457 3.27624C22.7705 2.14727 21.8526 1.22939 20.7236 0.654146L19.8157 2.43616ZM3.27575 0.654146C2.14678 1.22939 1.2289 2.14727 0.653656 3.27624L2.43567 4.18422C2.81916 3.43157 3.43108 2.81965 4.18373 2.43616L3.27575 0.654146ZM6.98067 0.0114136C5.44533 0.0408038 4.27979 0.142561 3.27575 0.654146L4.18373 2.43616C4.73558 2.15498 5.47572 2.04059 7.01895 2.01105L6.98067 0.0114136ZM2.01056 7.01934C2.0401 5.47617 2.15449 4.73606 2.43567 4.18422L0.653656 3.27624C0.142082 4.28026 0.0403187 5.44577 0.0109255 6.98106L2.01056 7.01934ZM0.0109255 17.0193C0.0403187 18.5546 0.142082 19.7201 0.653656 20.7241L2.43567 19.8161C2.15449 19.2643 2.0401 18.5242 2.01056 16.981L0.0109255 17.0193ZM7.01895 21.9893C5.47572 21.9598 4.73558 21.8454 4.18373 21.5642L3.27575 23.3462C4.27979 23.8578 5.44533 23.9596 6.98067 23.989L7.01895 21.9893ZM17.0187 23.989C18.5541 23.9596 19.7196 23.8578 20.7236 23.3462L19.8157 21.5642C19.2638 21.8454 18.5237 21.9598 16.9805 21.9893L17.0187 23.989ZM21.9888 16.981C21.9593 18.5242 21.8449 19.2643 21.5637 19.8161L23.3457 20.7241C23.8573 19.7201 23.9591 18.5546 23.9885 17.0193L21.9888 16.981ZM23.9885 6.98106C23.9591 5.44577 23.8573 4.28026 23.3457 3.27624L21.5637 4.18422C21.8449 4.73606 21.9593 5.47617 21.9888 7.01934L23.9885 6.98106ZM16.9805 2.01105C18.5237 2.04059 19.2638 2.15498 19.8157 2.43616L20.7236 0.654146C19.7196 0.142563 18.5541 0.0408044 17.0187 0.0114136L16.9805 2.01105ZM6 8H6.38271V6H6V8ZM6.64369 8.22395L7.15557 12.8701L9.14354 12.651L8.63166 8.00493L6.64369 8.22395ZM9.40452 14.875H14.8659V12.875H9.40452V14.875ZM17.0576 13.1833L17.9286 9.80135L15.9918 9.30253L15.1208 12.6845L17.0576 13.1833ZM15.7369 6.99306H8.27234V8.99306H15.7369V6.99306ZM17.9286 9.80135C18.2984 8.36557 17.2011 6.99306 15.7369 6.99306V8.99306C15.9202 8.99306 16.0291 9.1576 15.9918 9.30253L17.9286 9.80135ZM14.8659 14.875C15.8931 14.875 16.7997 14.1846 17.0576 13.1833L15.1208 12.6845C15.0935 12.7905 14.9928 12.875 14.8659 12.875V14.875ZM7.15557 12.8701C7.28213 14.0188 8.25824 14.875 9.40452 14.875V12.875C9.26236 12.875 9.15671 12.7706 9.14354 12.651L7.15557 12.8701ZM6.38271 8C6.52488 8 6.63052 8.10442 6.64369 8.22395L8.63166 8.00493C8.5051 6.8562 7.52899 6 6.38271 6V8ZM8.15603 16.375C8.15603 16.1586 8.33048 16 8.52482 16V18C9.41638 18 10.156 17.2818 10.156 16.375H8.15603ZM8.52482 16C8.71916 16 8.89362 16.1586 8.89362 16.375H6.89362C6.89362 17.2818 7.63327 18 8.52482 18V16ZM8.89362 16.375C8.89362 16.5914 8.71916 16.75 8.52482 16.75V14.75C7.63327 14.75 6.89362 15.4682 6.89362 16.375H8.89362ZM8.52482 16.75C8.33048 16.75 8.15603 16.5914 8.15603 16.375H10.156C10.156 15.4682 9.41638 14.75 8.52482 14.75V16.75ZM8.28797 17.1406H8.76137V15.1406H8.28797V17.1406ZM8.28797 17.6093H8.76137V15.6093H8.28797V17.6093ZM15.0993 16.375C15.0993 16.1586 15.2737 16 15.4681 16V18C16.3596 18 17.0993 17.2818 17.0993 16.375H15.0993ZM15.4681 16C15.6624 16 15.8369 16.1586 15.8369 16.375H13.8369C13.8369 17.2818 14.5765 18 15.4681 18V16ZM15.8369 16.375C15.8369 16.5914 15.6624 16.75 15.4681 16.75V14.75C14.5765 14.75 13.8369 15.4682 13.8369 16.375H15.8369ZM15.4681 16.75C15.2737 16.75 15.0993 16.5914 15.0993 16.375H17.0993C17.0993 15.4682 16.3596 14.75 15.4681 14.75V16.75ZM15.2312 17.1406H15.7046V15.1406H15.2312V17.1406ZM15.2312 17.6093H15.7046V15.6093H15.2312V17.6093Z" fill="black"/>
</svg>
